<svg width="16" height="16" viewBox="0 0 16 16" xmlns="http://www.w3.org/2000/svg">
<path d="M14.4583 7.16667H8.41667V1.125C8.41667 0.779822 8.13684 0.5 7.79167 0.5C7.44649 0.5 7.16667 0.779822 7.16667 1.125V7.16667H1.125C0.779822 7.16667 0.5 7.44649 0.5 7.79167C0.5 8.13684 0.779822 8.41667 1.125 8.41667H7.16667V14.4583C7.16667 14.8035 7.44649 15.0833 7.79167 15.0833C8.13684 15.0833 8.41667 14.8035 8.41667 14.4583V8.41667H14.4583C14.8035 8.41667 15.0833 8.13684 15.0833 7.79167C15.0833 7.44649 14.8035 7.16667 14.4583 7.16667Z"/>
</svg>
