<svg width="22" height="22" viewBox="0 0 22 22" fill="none" xmlns="http://www.w3.org/2000/svg">
<path fill-rule="evenodd" clip-rule="evenodd" d="M18.5993 6.41727L13.5027 2.64977C12.0118 1.5614 9.98849 1.5614 8.49766 2.64977L3.41016 6.41727C2.42515 7.12689 1.83909 8.26494 1.8335 9.47894V16.2898C1.88852 18.4836 3.70959 20.2185 5.9035 20.1673H16.0968C18.2907 20.2185 20.1118 18.4836 20.1668 16.2898V9.46977C20.159 8.26102 19.5771 7.12795 18.5993 6.41727ZM18.7918 16.2898C18.7372 17.7243 17.5315 18.8439 16.0968 18.7923H5.9035C4.47072 18.8388 3.2681 17.7221 3.2085 16.2898V9.47894C3.21339 8.6997 3.59182 7.97011 4.226 7.51727L9.3135 3.75894C10.3182 3.02522 11.6821 3.02522 12.6868 3.75894L17.7743 7.52644C18.408 7.97141 18.7871 8.69551 18.7918 9.46977V16.2898ZM6.87516 14.4381H15.1252C15.5049 14.4381 15.8127 14.7459 15.8127 15.1256C15.8127 15.5053 15.5049 15.8131 15.1252 15.8131H6.87516C6.49547 15.8131 6.18766 15.5053 6.18766 15.1256C6.18766 14.7459 6.49547 14.4381 6.87516 14.4381Z" fill="#353535"/>
</svg>
