<svg width="21" height="22" viewBox="0 0 21 22" fill="none" xmlns="http://www.w3.org/2000/svg">
<path fill-rule="evenodd" clip-rule="evenodd" d="M19.2399 5.86035L20.4999 14.2004C21.0099 17.8504 18.4999 21.1704 15.0999 21.2004H5.83987C2.49987 21.2004 -0.0401315 17.8504 0.499869 14.2004L1.75987 5.86035C2.05899 3.10272 4.32855 0.977674 7.09987 0.860352H13.8999C16.6712 0.977674 18.9407 3.10272 19.2399 5.86035ZM15.1299 19.6704C16.2036 19.6548 17.2164 19.1686 17.8999 18.3404C18.8166 17.2547 19.2146 15.8234 18.9899 14.4204L17.7599 6.08035C17.5842 4.04464 15.9398 2.44708 13.8999 2.33035H7.09987C5.05993 2.44708 3.4155 4.04464 3.23987 6.08035L2.00987 14.4204C1.78518 15.8234 2.18317 17.2547 3.09987 18.3404C3.78338 19.1686 4.79613 19.6548 5.86987 19.6704H15.1299Z" fill="#F5FFFF"/>
<path d="M13.6499 6.06035C13.2357 6.06035 12.8999 6.39614 12.8999 6.81035C12.8999 8.13583 11.8254 9.21035 10.4999 9.21035C9.17439 9.21035 8.09987 8.13583 8.09987 6.81035C8.09987 6.39614 7.76408 6.06035 7.34987 6.06035C6.93565 6.06035 6.59987 6.39614 6.59987 6.81035C6.59987 8.20369 7.3432 9.49118 8.54987 10.1879C9.75653 10.8845 11.2432 10.8845 12.4499 10.1879C13.6565 9.49118 14.3999 8.20369 14.3999 6.81035C14.3945 6.39839 14.0618 6.06574 13.6499 6.06035Z" fill="#F5FFFF"/>
</svg>
