<svg width="24" height="24" viewBox="0 0 24 24" fill="none" xmlns="http://www.w3.org/2000/svg">
<path fill-rule="evenodd" clip-rule="evenodd" d="M6.57 11.42C7.18323 11.694 7.68677 12.1659 8 12.76L10.64 17.57C10.8376 17.9278 10.9376 18.3313 10.93 18.74L10.88 20.74C10.8784 21.1528 10.6575 21.5336 10.3 21.74C10.1368 21.8264 9.95468 21.871 9.77 21.87C9.54744 21.8691 9.32945 21.8068 9.14 21.69L7.46 20.69C7.11098 20.4745 6.82475 20.171 6.63 19.81L4 15C3.66864 14.3856 3.55581 13.6769 3.68 12.99C3.75635 12.3415 4.1246 11.7634 4.68 11.42C5.27514 11.1236 5.97485 11.1236 6.57 11.42ZM8.23 19.36L9.39 20.06L9.38 18.68C9.37661 18.5333 9.33894 18.3895 9.27 18.26L6.64 13.45C6.48697 13.1472 6.23704 12.9043 5.93 12.76C5.82744 12.7088 5.71462 12.6814 5.6 12.68C5.51638 12.6808 5.43414 12.7014 5.36 12.74C5.19422 12.8511 5.08762 13.0312 5.07 13.23C5.0243 13.5763 5.09463 13.9279 5.27 14.23L7.9 19C7.97088 19.1507 8.08599 19.2763 8.23 19.36Z" fill="#F5FFFF"/>
<path fill-rule="evenodd" clip-rule="evenodd" d="M13.2199 2.35L20.2199 9.35C20.3682 9.49779 20.4479 9.70082 20.4399 9.91001V16.91C20.4399 18.1698 19.9395 19.378 19.0487 20.2688C18.1579 21.1596 16.9497 21.66 15.6899 21.66H12.8199C12.4057 21.66 12.0699 21.3242 12.0699 20.91C12.0699 20.4958 12.4057 20.16 12.8199 20.16H15.6899C17.4826 20.1545 18.9344 18.7027 18.9399 16.91V10.66H14.6899C13.1734 10.6545 11.9454 9.42651 11.9399 7.91001V3.66H9.6899C7.89498 3.66 6.4399 5.11508 6.4399 6.91001V9.56C6.4399 9.97422 6.10412 10.31 5.6899 10.31C5.27569 10.31 4.9399 9.97422 4.9399 9.56V6.91001C4.93192 5.64504 5.42883 4.42913 6.3205 3.53184C7.21216 2.63454 8.42491 2.12998 9.6899 2.13H12.6899C12.8888 2.13018 13.0794 2.20931 13.2199 2.35ZM13.4399 4.69V7.91C13.4399 8.60036 13.9995 9.16 14.6899 9.16H17.9099L13.4399 4.69Z" fill="#F5FFFF"/>
</svg>
