<svg width="11" height="12" viewBox="0 0 11 12" fill="none" xmlns="http://www.w3.org/2000/svg">
<path d="M5.50017 3.29183C5.35651 3.29183 5.21873 3.3489 5.11715 3.45048C5.01557 3.55206 4.9585 3.68984 4.9585 3.8335V6.00016C4.9585 6.14382 5.01557 6.2816 5.11715 6.38318C5.21873 6.48476 5.35651 6.54183 5.50017 6.54183C5.64382 6.54183 5.7816 6.48476 5.88318 6.38318C5.98476 6.2816 6.04183 6.14382 6.04183 6.00016V3.8335C6.04183 3.68984 5.98476 3.55206 5.88318 3.45048C5.7816 3.3489 5.64382 3.29183 5.50017 3.29183ZM5.9985 7.961C5.98664 7.92648 5.97025 7.89369 5.94975 7.8635L5.88475 7.78225C5.80858 7.70709 5.71185 7.65617 5.60677 7.63593C5.5017 7.61568 5.39298 7.62702 5.29433 7.6685C5.22869 7.69593 5.16823 7.7344 5.11558 7.78225C5.06538 7.83286 5.02566 7.89289 4.99871 7.95888C4.97175 8.02488 4.95809 8.09554 4.9585 8.16683C4.95935 8.23761 4.97408 8.30754 5.00183 8.37266C5.02616 8.43988 5.06497 8.50093 5.11552 8.55148C5.16607 8.60202 5.22711 8.64084 5.29433 8.66516C5.35917 8.69382 5.42928 8.70862 5.50017 8.70862C5.57105 8.70862 5.64116 8.69382 5.706 8.66516C5.77322 8.64084 5.83426 8.60202 5.88481 8.55148C5.93536 8.50093 5.97417 8.43988 5.9985 8.37266C6.02625 8.30754 6.04098 8.23761 6.04183 8.16683C6.04449 8.13077 6.04449 8.09456 6.04183 8.0585C6.03251 8.02395 6.01789 7.99107 5.9985 7.961ZM5.50017 0.583496C4.42885 0.583496 3.38159 0.901178 2.49083 1.49637C1.60006 2.09156 0.905792 2.93753 0.495818 3.92729C0.085843 4.91706 -0.021425 6.00617 0.187578 7.0569C0.396582 8.10763 0.912469 9.07279 1.67 9.83033C2.42754 10.5879 3.3927 11.1037 4.44343 11.3128C5.49416 11.5218 6.58327 11.4145 7.57303 11.0045C8.5628 10.5945 9.40877 9.90027 10.004 9.0095C10.5991 8.11874 10.9168 7.07148 10.9168 6.00016C10.9168 5.28884 10.7767 4.58447 10.5045 3.92729C10.2323 3.27011 9.83331 2.67299 9.33033 2.17C8.82734 1.66702 8.23022 1.26803 7.57303 0.995815C6.91585 0.723602 6.21149 0.583496 5.50017 0.583496ZM5.50017 10.3335C4.64311 10.3335 3.80531 10.0794 3.09269 9.6032C2.38008 9.12704 1.82467 8.45027 1.49669 7.65846C1.16871 6.86664 1.08289 5.99536 1.2501 5.15477C1.4173 4.31419 1.83001 3.54206 2.43604 2.93603C3.04206 2.33001 3.81419 1.9173 4.65477 1.75009C5.49536 1.58289 6.36665 1.66871 7.15846 1.99668C7.95027 2.32466 8.62705 2.88008 9.1032 3.59269C9.57935 4.3053 9.8335 5.14311 9.8335 6.00016C9.8335 7.14943 9.37695 8.25164 8.56429 9.06429C7.75164 9.87695 6.64944 10.3335 5.50017 10.3335Z" fill="#AC0000"/>
</svg>
