<svg width="20" height="20" viewBox="0 0 20 20" fill="none" xmlns="http://www.w3.org/2000/svg">
<g clip-path="url(#clip0_2320_42487)">
<path d="M19.3923 7.8488C18.64 6.6169 17.6911 5.51651 16.5831 4.5913L18.9165 2.25796C19.0683 2.10079 19.1523 1.89029 19.1504 1.6718C19.1485 1.4533 19.0608 1.24429 18.9063 1.08978C18.7518 0.935274 18.5428 0.847633 18.3243 0.845735C18.1058 0.843836 17.8953 0.927831 17.7381 1.07963L15.2006 3.62046C13.6276 2.68615 11.8293 2.19918 9.9998 2.21213C4.84063 2.21213 1.90063 5.7438 0.607299 7.8488C0.207739 8.49505 -0.00390625 9.23983 -0.00390625 9.99963C-0.00390625 10.7594 0.207739 11.5042 0.607299 12.1505C1.3596 13.3824 2.30854 14.4828 3.41646 15.408L1.08313 17.7413C1.00354 17.8182 0.940055 17.9101 0.896381 18.0118C0.852707 18.1135 0.829718 18.2228 0.828757 18.3335C0.827795 18.4441 0.84888 18.5538 0.890781 18.6563C0.932681 18.7587 0.994559 18.8517 1.0728 18.93C1.15105 19.0082 1.24409 19.0701 1.3465 19.112C1.44892 19.1539 1.55865 19.175 1.6693 19.174C1.77995 19.173 1.8893 19.1501 1.99097 19.1064C2.09264 19.0627 2.18459 18.9992 2.26147 18.9196L4.8048 16.3763C6.37585 17.3105 8.17202 17.7983 9.9998 17.7871C15.159 17.7871 18.099 14.2555 19.3923 12.1505C19.7919 11.5042 20.0035 10.7594 20.0035 9.99963C20.0035 9.23983 19.7919 8.49505 19.3923 7.8488ZM2.0273 11.278C1.78991 10.8938 1.66417 10.4512 1.66417 9.99963C1.66417 9.54807 1.78991 9.10542 2.0273 8.7213C3.13897 6.9163 5.65147 3.8788 9.9998 3.8788C11.3834 3.87105 12.7475 4.20449 13.9715 4.84963L12.294 6.52713C11.4939 5.99596 10.5347 5.75796 9.57916 5.8535C8.6236 5.94904 7.73052 6.37224 7.05147 7.0513C6.37241 7.73035 5.94921 8.62343 5.85367 9.57899C5.75813 10.5346 5.99613 11.4937 6.5273 12.2938L4.6023 14.2188C3.58155 13.3936 2.7105 12.3988 2.0273 11.278ZM12.4998 9.99963C12.4998 10.6627 12.2364 11.2986 11.7676 11.7674C11.2987 12.2362 10.6628 12.4996 9.9998 12.4996C9.62856 12.4982 9.26246 12.4127 8.92897 12.2496L12.2498 8.9288C12.4129 9.26229 12.4984 9.62839 12.4998 9.99963ZM7.4998 9.99963C7.4998 9.33659 7.76319 8.7007 8.23203 8.23186C8.70087 7.76302 9.33676 7.49963 9.9998 7.49963C10.371 7.50107 10.7371 7.58654 11.0706 7.74963L7.7498 11.0705C7.58671 10.737 7.50124 10.3709 7.4998 9.99963ZM17.9723 11.278C16.8606 13.083 14.3481 16.1205 9.9998 16.1205C8.61624 16.1282 7.2521 15.7948 6.02813 15.1496L7.70563 13.4721C8.50569 14.0033 9.46488 14.2413 10.4204 14.1458C11.376 14.0502 12.2691 13.627 12.9481 12.948C13.6272 12.2689 14.0504 11.3758 14.1459 10.4203C14.2415 9.46471 14.0035 8.50552 13.4723 7.70546L15.3973 5.78046C16.418 6.6057 17.2891 7.6005 17.9723 8.7213C18.2097 9.10542 18.3354 9.54807 18.3354 9.99963C18.3354 10.4512 18.2097 10.8938 17.9723 11.278Z" fill="#7D7D7D"/>
</g>
<defs>
<clipPath id="clip0_2320_42487">
<rect width="20" height="20" fill="white"/>
</clipPath>
</defs>
</svg>
