<svg width="24" height="25" viewBox="0 0 24 25" fill="none" xmlns="http://www.w3.org/2000/svg">
<path fill-rule="evenodd" clip-rule="evenodd" d="M4.57996 2.5H8.74996C9.9926 2.5 11 3.50736 11 4.75V6.92C11 8.16264 9.9926 9.17 8.74996 9.17H4.57996C3.33732 9.17 2.32996 8.16264 2.32996 6.92V4.75C2.32996 3.50736 3.33732 2.5 4.57996 2.5ZM8.74996 7.67C9.16192 7.66461 9.49457 7.33196 9.49996 6.92V4.75C9.49457 4.33804 9.16192 4.00539 8.74996 4H4.57996C4.16799 4.00539 3.83534 4.33804 3.82996 4.75V6.92C3.83534 7.33196 4.16799 7.66461 4.57996 7.67H8.74996Z" fill="#F4FFFF"/>
<path fill-rule="evenodd" clip-rule="evenodd" d="M15.9199 2.5H19.4199C20.6626 2.5 21.6699 3.50736 21.6699 4.75V11.58C21.6699 12.8226 20.6626 13.83 19.4199 13.83H15.9199C15.3224 13.8327 14.7485 13.5965 14.326 13.1739C13.9035 12.7514 13.6673 12.1776 13.6699 11.58V4.75C13.6699 3.50736 14.6773 2.5 15.9199 2.5ZM19.4199 12.33C19.8341 12.33 20.1699 11.9942 20.1699 11.58V4.75C20.1645 4.33804 19.8319 4.00539 19.4199 4H15.9199C15.5057 4 15.1699 4.33579 15.1699 4.75V11.58C15.1672 11.7797 15.2454 11.9721 15.3866 12.1133C15.5279 12.2546 15.7202 12.3327 15.9199 12.33H19.4199Z" fill="#F4FFFF"/>
<path fill-rule="evenodd" clip-rule="evenodd" d="M15.92 16.5H19.42C20.6626 16.5 21.67 17.5074 21.67 18.75V20.25C21.67 21.4926 20.6626 22.5 19.42 22.5H15.92C14.6773 22.5 13.67 21.4926 13.67 20.25V18.75C13.67 17.5074 14.6773 16.5 15.92 16.5ZM19.42 21C19.8319 20.9946 20.1646 20.662 20.17 20.25V18.75C20.1646 18.338 19.8319 18.0054 19.42 18H15.92C15.5057 18 15.17 18.3358 15.17 18.75V20.25C15.17 20.6642 15.5057 21 15.92 21H19.42Z" fill="#F4FFFF"/>
<path fill-rule="evenodd" clip-rule="evenodd" d="M4.57996 11.83H8.74996C9.9926 11.83 11 12.8374 11 14.08V20.25C11 21.4926 9.9926 22.5 8.74996 22.5H4.57996C3.33732 22.5 2.32996 21.4926 2.32996 20.25V14.08C2.32996 12.8374 3.33732 11.83 4.57996 11.83ZM8.74996 21C9.16192 20.9946 9.49457 20.662 9.49996 20.25V14.08C9.49457 13.668 9.16192 13.3354 8.74996 13.33H4.57996C4.16799 13.3354 3.83534 13.668 3.82996 14.08V20.25C3.83534 20.662 4.16799 20.9946 4.57996 21H8.74996Z" fill="#F4FFFF"/>
</svg>
