<svg width="180" height="180" viewBox="0 0 180 180" fill="none" xmlns="http://www.w3.org/2000/svg">
<g clip-path="url(#clip0_2622_53129)">
<path d="M180 0H0V180H180V0Z" fill="#F5FFFF"/>
<path opacity="0.3" d="M141.703 136.581C138.954 139.476 136.352 141.343 134.296 142.818C110.134 160.155 81.5425 155.101 75.4661 153.867C66.4932 152.045 49.1487 148.522 36.609 133.775C17.6375 111.465 20.5916 76.3161 35.3073 53.1137C37.999 48.8696 52.2174 25.3138 81.1163 21.5362C98.6056 19.25 118.993 23.8609 133.756 36.2299C164.746 62.1936 162.54 114.645 141.703 136.581Z" fill="url(#paint0_linear_2622_53129)"/>
<path d="M22.0378 60.1814C21.8868 59.9386 22.1668 59.6589 22.4076 59.8129C26.2515 62.2708 39.7748 72.11 44.0827 91.2476C48.0241 108.758 47.921 121.688 47.6885 126.497C47.6425 127.447 46.59 127.998 45.7836 127.492C41.004 124.493 28.0602 115.396 26.4486 103.937C24.5227 90.2426 29.2435 71.764 22.0378 60.1814Z" fill="url(#paint1_linear_2622_53129)"/>
<path opacity="0.5" d="M30.4629 73.1628C30.4629 73.1628 41.2084 84.7235 46.569 126.095C46.569 126.095 38.9791 84.8026 30.4629 73.1628Z" fill="#F5FFFF"/>
<path d="M42.2914 21.3139C38.3466 31.0895 17.7132 88.9154 68.4983 118.024C68.4983 118.024 91.8819 83.4523 43.824 21.1005C43.4036 20.5551 42.5492 20.6752 42.2914 21.3139Z" fill="url(#paint2_linear_2622_53129)"/>
<path opacity="0.5" d="M45.2344 31.8147C45.1309 35.3515 45.175 38.8985 45.2892 42.4383C45.4065 45.9791 45.6092 49.517 45.8998 53.0473C46.4837 60.1069 47.4015 67.1422 48.7774 74.0883C50.1602 81.029 51.992 87.8935 54.5495 94.4873C55.1833 96.1372 55.8797 97.7619 56.6167 99.3667C57.3517 100.973 58.148 102.55 59.0031 104.093C60.7008 107.187 62.6657 110.132 64.9013 112.853L64.9032 112.856C65.0196 112.997 64.9991 113.206 64.8574 113.323C64.7158 113.439 64.5065 113.419 64.3901 113.277L64.3891 113.276C62.1349 110.507 60.1622 107.52 58.463 104.39C57.6071 102.829 56.8114 101.235 56.0783 99.6137C55.3431 97.9937 54.6494 96.3548 54.0192 94.6921C51.4763 88.0468 49.6694 81.1473 48.3135 74.1794C46.9649 67.2063 46.0771 60.1521 45.5241 53.0774C45.2489 49.5396 45.0618 45.9952 44.9603 42.4485C44.862 38.9013 44.8336 35.3539 44.9534 31.8031C44.956 31.7255 45.0211 31.6647 45.0987 31.6673C45.1763 31.6699 45.2372 31.7351 45.2345 31.8126L45.2344 31.8147Z" fill="#F5FFFF"/>
<path d="M44.8564 44.8219C44.8564 40.2047 48.5994 36.4617 53.2166 36.4617H124.312C128.235 36.4617 131.469 39.5355 131.668 43.4527L136.916 146.528C137.072 149.593 134.659 152.179 131.59 152.235L50.1058 153.716C47.2223 153.768 44.8564 151.445 44.8564 148.561V44.8219Z" fill="url(#paint3_linear_2622_53129)"/>
<path d="M62.015 151.963C62.0141 151.963 62.0133 151.963 62.0124 151.963L52.8948 151.846C49.846 151.806 47.3657 149.293 47.3657 146.245V132.479C47.3657 132.371 47.4529 132.284 47.5604 132.284C47.6679 132.284 47.755 132.371 47.755 132.479V146.245C47.755 149.081 50.0629 151.419 52.8998 151.456L62.0174 151.574C62.1249 151.575 62.2109 151.664 62.2096 151.771C62.2082 151.878 62.1213 151.963 62.015 151.963Z" fill="#F5FFFF"/>
<path d="M47.5604 128.409C47.4529 128.409 47.3657 128.322 47.3657 128.215V125.985C47.3657 125.878 47.4529 125.791 47.5604 125.791C47.6679 125.791 47.755 125.878 47.755 125.985V128.215C47.755 128.322 47.6679 128.409 47.5604 128.409Z" fill="#F5FFFF"/>
<path d="M50.6812 38.0483C50.6725 36.571 51.9717 35.4277 53.4355 35.6262C63.1443 36.9428 96.5302 41.0148 124.133 38.8959C125.392 38.7993 126.484 39.753 126.551 41.0137L132.054 144.549C132.129 145.968 131.045 147.182 129.626 147.266C118.017 147.953 70.2062 150.609 53.1528 148.823C52.1149 148.714 51.3271 147.84 51.3209 146.797L50.6812 38.0483Z" fill="url(#paint4_linear_2622_53129)"/>
<path opacity="0.6" d="M51.8247 40.6427C51.8164 39.2211 53.0666 38.1208 54.4754 38.3119C63.8185 39.5789 95.9472 43.4976 122.511 41.4585C123.722 41.3654 124.774 42.2833 124.838 43.4966L130.134 143.133C130.206 144.499 129.163 145.667 127.797 145.748C116.625 146.409 70.6146 148.965 54.2033 147.246C53.2045 147.141 52.4463 146.301 52.4404 145.296L51.8247 40.6427Z" fill="#F5FFFF"/>
<path opacity="0.58" d="M121.666 54.9383H58.0467C57.7674 54.9383 57.541 54.712 57.541 54.4326V50.1665C57.541 49.8873 57.7674 49.6609 58.0467 49.6609H121.666C121.945 49.6609 122.172 49.8873 122.172 50.1665V54.4326C122.172 54.712 121.945 54.9383 121.666 54.9383Z" fill="#F5FFFF"/>
<path opacity="0.58" d="M102.907 86.1048H58.1199C57.8406 86.1048 57.6143 85.8784 57.6143 85.5991V60.1065C57.6143 59.8272 57.8406 59.6008 58.1199 59.6008H102.907C103.186 59.6008 103.412 59.8272 103.412 60.1065V85.5991C103.412 85.8784 103.186 86.1048 102.907 86.1048Z" fill="#F5FFFF"/>
<path opacity="0.58" d="M121.896 100.926H57.8254C57.6684 100.926 57.541 100.799 57.541 100.642V97.8889C57.541 97.7318 57.6683 97.6045 57.8254 97.6045H121.896C122.053 97.6045 122.181 97.7318 122.181 97.8889V100.642C122.181 100.799 122.053 100.926 121.896 100.926Z" fill="#F5FFFF"/>
<path opacity="0.58" d="M81.379 94.7428H58.0095C57.8525 94.7428 57.7251 94.6154 57.7251 94.4583V91.8354C57.7251 91.6784 57.8524 91.551 58.0095 91.551H81.379C81.536 91.551 81.6634 91.6783 81.6634 91.8354V94.4583C81.6634 94.6154 81.536 94.7428 81.379 94.7428Z" fill="#F5FFFF"/>
<path opacity="0.58" d="M121.973 107.163H57.7486C57.634 107.163 57.541 107.071 57.541 106.956V104.076C57.541 103.962 57.634 103.869 57.7486 103.869H121.973C122.088 103.869 122.181 103.962 122.181 104.076V106.956C122.181 107.071 122.088 107.163 121.973 107.163Z" fill="#F5FFFF"/>
<path opacity="0.58" d="M121.973 113.118H57.7486C57.634 113.118 57.541 113.025 57.541 112.911V110.267C57.541 110.153 57.634 110.06 57.7486 110.06H121.973C122.088 110.06 122.181 110.153 122.181 110.267V112.911C122.181 113.025 122.088 113.118 121.973 113.118Z" fill="#F5FFFF"/>
<path opacity="0.58" d="M122.366 128.76H58.2956C58.1386 128.76 58.0112 128.633 58.0112 128.476V125.723C58.0112 125.566 58.1385 125.438 58.2956 125.438H122.366C122.523 125.438 122.651 125.566 122.651 125.723V128.476C122.651 128.633 122.523 128.76 122.366 128.76Z" fill="#F5FFFF"/>
<path opacity="0.58" d="M81.8492 122.577H58.4797C58.3227 122.577 58.1953 122.449 58.1953 122.292V119.669C58.1953 119.512 58.3226 119.385 58.4797 119.385H81.8492C82.0062 119.385 82.1336 119.512 82.1336 119.669V122.292C82.1335 122.449 82.0062 122.577 81.8492 122.577Z" fill="#F5FFFF"/>
<path opacity="0.58" d="M122.444 134.998H58.2193C58.1047 134.998 58.0117 134.905 58.0117 134.79V131.91C58.0117 131.796 58.1047 131.703 58.2193 131.703H122.444C122.558 131.703 122.651 131.796 122.651 131.91V134.79C122.651 134.905 122.558 134.998 122.444 134.998Z" fill="#F5FFFF"/>
<path opacity="0.58" d="M122.444 140.952H58.2193C58.1047 140.952 58.0117 140.859 58.0117 140.745V138.101C58.0117 137.987 58.1047 137.894 58.2193 137.894H122.444C122.558 137.894 122.651 137.987 122.651 138.101V140.745C122.651 140.859 122.558 140.952 122.444 140.952Z" fill="#F5FFFF"/>
<path d="M93.1737 22.4078C90.6056 20.6212 88.3726 20.6566 86.8007 21.1205C85.3668 21.5435 84.4374 22.928 84.5738 24.4168L85.2517 31.816L93.3183 32.5319C93.3183 32.5319 98.2101 25.9115 93.1737 22.4078ZM89.6262 28.3771C88.5153 28.3771 87.6148 27.4767 87.6148 26.3658C87.6148 25.2548 88.5153 24.3543 89.6262 24.3543C90.7371 24.3543 91.6376 25.2548 91.6376 26.3658C91.6376 27.4767 90.7371 28.3771 89.6262 28.3771Z" fill="url(#paint5_linear_2622_53129)"/>
<path d="M86.0578 28.7035C85.9583 28.7035 85.8735 28.6277 85.8642 28.5265L85.7562 27.3482C85.7464 27.2411 85.8252 27.1465 85.9323 27.1366C86.0414 27.1263 86.1341 27.2056 86.1438 27.3128L86.2518 28.4911C86.2617 28.5982 86.1828 28.6928 86.0758 28.7027C86.0697 28.7033 86.0637 28.7035 86.0578 28.7035ZM85.8463 26.3943C85.7468 26.3943 85.6619 26.3185 85.6527 26.2173L85.5707 25.3227C85.4406 23.9045 86.3331 22.5839 87.6925 22.1826C88.6553 21.8985 89.6473 21.8578 90.6407 22.0615C90.746 22.083 90.8139 22.186 90.7923 22.2914C90.7707 22.3965 90.6687 22.4638 90.5626 22.4429C89.632 22.2524 88.7036 22.2903 87.8027 22.556C86.621 22.9048 85.8452 24.0535 85.9582 25.2874L86.0402 26.1819C86.0501 26.289 85.9712 26.3836 85.8642 26.3935C85.8582 26.3941 85.8522 26.3943 85.8463 26.3943Z" fill="#F5FFFF"/>
<path d="M74.2422 36.5978V32.8778C74.2422 31.5936 75.3065 30.5651 76.59 30.609L102.238 31.4878C103.377 31.5268 104.298 32.4252 104.367 33.5621L104.581 37.1366L74.2422 36.5978Z" fill="url(#paint6_linear_2622_53129)"/>
<path d="M83.8059 32.0106H82.703C82.5954 32.0106 82.5083 31.9236 82.5083 31.816C82.5083 31.7084 82.5954 31.6213 82.703 31.6213H83.8059C83.9135 31.6213 84.0006 31.7084 84.0006 31.816C84.0006 31.9236 83.9135 32.0106 83.8059 32.0106Z" fill="#F5FFFF"/>
<path d="M75.6307 35.4296C75.5232 35.4296 75.436 35.3425 75.436 35.2349V33.73C75.436 32.5672 76.382 31.6213 77.5448 31.6213H81.6C81.7075 31.6213 81.7946 31.7084 81.7946 31.816C81.7946 31.9236 81.7075 32.0106 81.6 32.0106H77.5448C76.5967 32.0106 75.8253 32.782 75.8253 33.73V35.2349C75.8254 35.3425 75.7382 35.4296 75.6307 35.4296Z" fill="#F5FFFF"/>
<path d="M63.7917 37.5372C63.8536 36.249 64.916 35.2364 66.2057 35.2363L111.057 35.2351C112.669 35.2351 114.048 36.3956 114.323 37.9847L114.361 38.204C114.662 39.9446 113.322 41.5366 111.556 41.5366H65.5415C64.4843 41.5366 63.6419 40.6527 63.6926 39.5967L63.7917 37.5372Z" fill="url(#paint7_linear_2622_53129)"/>
<path d="M121.564 100.069H85.6066C84.1549 100.069 82.978 98.8917 82.978 97.44V74.0261C82.978 72.6312 84.0676 71.4793 85.4603 71.4016L122.805 69.3201C124.369 69.2329 125.661 70.5237 125.576 72.0874L124.189 97.5829C124.113 98.977 122.96 100.069 121.564 100.069Z" fill="url(#paint8_linear_2622_53129)"/>
<path d="M104.425 85.9401L124.081 69.5705C123.697 69.3876 123.263 69.2943 122.806 69.3198L85.4604 71.4014C84.8182 71.4372 84.2408 71.7017 83.8047 72.1129L98.5152 85.7938C100.112 87.279 102.739 87.344 104.425 85.9401Z" fill="url(#paint9_linear_2622_53129)"/>
<path d="M101.692 85.1289C100.715 85.1289 99.7423 84.7793 98.9606 84.0892L93.4181 79.196C93.2554 79.0525 93.2399 78.8042 93.3835 78.6416C93.5271 78.4786 93.7756 78.4633 93.938 78.607L99.4806 83.5002C100.658 84.5395 102.371 84.6253 103.647 83.7086L106.519 81.6443C106.696 81.5177 106.94 81.5581 107.067 81.7341C107.194 81.9103 107.154 82.1557 106.977 82.2824L104.105 84.3467C103.377 84.8701 102.533 85.1289 101.692 85.1289Z" fill="#F5FFFF"/>
<path d="M91.6159 77.4739C91.5234 77.4739 91.4307 77.4416 91.3561 77.3756L90.6099 76.7169C90.4473 76.5734 90.4318 76.3251 90.5754 76.1625C90.7189 75.9995 90.9672 75.9845 91.1298 76.1279L91.876 76.7866C92.0386 76.9302 92.0541 77.1784 91.9105 77.3411C91.8329 77.4291 91.7246 77.4739 91.6159 77.4739Z" fill="#F5FFFF"/>
<path d="M156.452 152.619C156.452 152.619 157.048 153.558 157.197 156.188C157.211 156.433 157.017 156.642 156.772 156.642H152.112C151.924 156.642 151.79 156.458 151.85 156.28C152.124 155.472 152.949 153.501 154.792 152.375L156.452 152.619Z" fill="url(#paint10_linear_2622_53129)"/>
<path d="M156.654 150.837L156.391 153.047C156.368 153.238 156.218 153.391 156.028 153.413C155.773 153.442 155.402 153.463 155.042 153.403C154.715 153.349 154.479 153.058 154.479 152.726V150.592L156.654 150.837Z" fill="url(#paint11_linear_2622_53129)"/>
<path d="M144.922 152.375C144.922 152.375 145.814 153.762 145.794 155.665C145.79 156.113 145.415 156.47 144.966 156.47H137.729C137.39 156.47 137.252 156.035 137.53 155.84C138.899 154.878 141.591 153.082 143.538 152.375H144.922Z" fill="url(#paint12_linear_2622_53129)"/>
<path d="M145.667 149.989L145.105 152.718C145.042 153.024 144.743 153.229 144.439 153.161C144.254 153.12 144.036 153.041 143.803 152.895C143.581 152.757 143.469 152.493 143.514 152.236L144.096 148.929L145.667 149.989Z" fill="url(#paint13_linear_2622_53129)"/>
<path d="M155.621 112.038C155.621 112.038 157.576 113.762 157.944 115.835C158.312 117.909 156.902 151.609 156.902 151.609C156.902 151.609 154.947 151.935 153.939 151.324C153.939 151.324 152.744 129.453 151.836 124.399C151.836 124.399 147.072 147.055 145.752 151.148C145.752 151.148 143.869 151.377 143.261 151.019C143.261 151.019 144.509 121.65 146.077 116.429L155.621 112.038Z" fill="url(#paint14_linear_2622_53129)"/>
<path d="M151.893 123.598C151.883 123.598 151.872 123.597 151.862 123.594C151.796 123.577 151.757 123.51 151.774 123.444L152.604 120.259C152.612 120.229 152.631 120.203 152.657 120.187L154.451 119.036C154.508 118.999 154.584 119.016 154.621 119.073C154.657 119.13 154.641 119.206 154.584 119.243L152.83 120.368L152.012 123.506C151.997 123.562 151.948 123.598 151.893 123.598Z" fill="#666694"/>
<path d="M136.331 92.5653C144.56 91.8821 146.711 93.5851 146.711 93.5851L142.756 99.8282C142.756 99.8282 134.67 99.6685 128.876 95.2029C129.961 94.0352 130.714 92.7446 131.197 91.7397C132.691 92.3605 134.411 92.7246 136.331 92.5653Z" fill="url(#paint15_linear_2622_53129)"/>
<path d="M123.444 80.4861C123.455 80.2224 123.813 80.1506 123.925 80.3896L124.975 82.6303C125.178 83.0633 125.243 83.5481 125.161 84.0191L124.793 85.3233C124.683 85.9593 124.849 86.6109 125.252 87.115C126.217 88.3212 128.272 90.5241 131.197 91.7396C130.714 92.7445 129.961 94.0351 128.877 95.2028C126.751 93.5643 124.933 91.3468 123.937 88.3439C123.46 88.1973 123.141 87.7481 123.16 87.2493L123.444 80.4861Z" fill="url(#paint16_linear_2622_53129)"/>
<path d="M133.622 96.1851C136.519 93.0635 142.037 91.6531 145.232 91.0738C146.632 90.82 148.011 91.5989 148.507 92.9321C149.945 96.7968 153.855 106.852 154.613 108.58C155.235 109.997 155.884 111.382 156.296 112.248C156.543 112.765 156.328 113.384 155.811 113.633C153.124 114.928 148.287 116.394 146.326 116.966C145.895 117.092 145.465 116.768 145.465 116.318C145.465 115.937 145.362 115.564 145.166 115.237L137.74 102.862C133.111 107.994 129.058 108.463 125.944 107.34C126.467 105.722 126.81 104.101 126.974 102.477C131.574 101.689 133.622 96.1851 133.622 96.1851Z" fill="url(#paint17_linear_2622_53129)"/>
<path d="M119.371 101.615L120.201 100.508C122.889 102.354 125.135 102.792 126.975 102.477C126.81 104.101 126.468 105.722 125.944 107.34C121.842 105.86 119.371 101.615 119.371 101.615Z" fill="url(#paint18_linear_2622_53129)"/>
<path d="M119.956 101.635L115.279 101.817L110.973 99.4124C111.591 99.0249 115.087 99.8169 115.087 99.8169C115.087 99.8169 118.741 99.2642 119.73 99.2629C120.551 99.2619 120.434 100.443 120.37 100.843C120.358 100.925 120.347 100.974 120.347 100.974L119.956 101.635Z" fill="url(#paint19_linear_2622_53129)"/>
<path d="M140.837 85.3408L143.305 91.3626C143.305 91.3626 140.47 93.3251 138.189 93.1384L136.957 87.7237L140.837 85.3408Z" fill="url(#paint20_linear_2622_53129)"/>
<path d="M136.669 81.2356C136.613 81.3157 134.884 87.5608 134.884 87.5608L138.471 88.4721L140.989 82.7964C140.989 82.7964 137.615 79.8951 136.669 81.2356Z" fill="url(#paint21_linear_2622_53129)"/>
<path d="M139.638 83.6587L138.546 86.7503C138.532 86.79 138.513 86.8266 138.489 86.861C138.341 87.0715 137.779 87.7581 137.111 87.1396C136.505 86.5783 135.944 86.0751 135.426 85.9838C135.194 85.9428 134.968 86.0847 134.905 86.3124C134.748 86.8799 134.418 88.1651 134.302 89.3255C134.278 89.561 134.441 89.7738 134.674 89.8179C135.374 89.951 136.859 90.1902 138.1 90.1028C138.268 90.0909 138.415 89.9902 138.486 89.837C138.827 89.0903 139.874 86.8245 140.264 86.2383C140.629 85.6881 141.525 85.7035 141.901 85.7368C142.024 85.7477 142.145 85.708 142.238 85.6265C142.567 85.3383 143.193 84.6026 142.313 83.7218C142.129 83.5375 142.134 83.2402 142.323 83.0617C142.701 82.7063 143.106 82.0759 142.476 81.2943C141.836 80.4997 140.991 80.6262 140.473 80.8151C140.264 80.8914 140.035 80.803 139.922 80.6114C139.857 80.5023 139.744 80.4198 139.548 80.4366C139.284 80.4593 139.062 80.239 139.067 79.9741C139.076 79.465 138.894 78.822 138.011 78.5471C136.444 78.0595 135.467 79.5732 135.37 80.7027C135.273 81.8323 137.002 82.2645 138.019 82.1882C138.792 82.1303 139.365 82.8965 139.596 83.267C139.669 83.3844 139.684 83.5283 139.638 83.6587Z" fill="url(#paint22_linear_2622_53129)"/>
<path d="M139.855 87.3601C139.855 87.3601 140.108 85.3992 140.924 85.3031C141.74 85.207 142.534 85.8774 141.723 86.978C140.714 88.3472 139.855 87.3601 139.855 87.3601Z" fill="url(#paint23_linear_2622_53129)"/>
<g opacity="0.3">
<path d="M114.833 45.1938C115.089 45.2689 115.236 45.5378 115.161 45.7943C115.015 46.2926 114.889 46.8047 114.785 47.3163C114.733 47.5752 114.483 47.7436 114.224 47.6964C114.221 47.6959 114.218 47.6953 114.215 47.6947C113.953 47.6418 113.783 47.3864 113.836 47.1243C113.945 46.5858 114.079 46.0466 114.232 45.522C114.302 45.2822 114.542 45.138 114.783 45.1819C114.8 45.185 114.816 45.1889 114.833 45.1938ZM114.452 49.8413C114.419 50.3621 114.409 50.8891 114.42 51.4084C114.426 51.6754 114.214 51.8969 113.947 51.9029C113.679 51.9079 113.458 51.6969 113.452 51.4297C113.44 50.8835 113.452 50.3286 113.486 49.7807C113.503 49.5139 113.733 49.3113 114 49.3281C114.019 49.3293 114.038 49.3317 114.057 49.3351C114.295 49.3785 114.468 49.594 114.452 49.8413ZM114.653 53.9431C114.737 54.4567 114.844 54.9728 114.972 55.4774C115.037 55.7365 114.88 55.9997 114.621 56.0653C114.362 56.1304 114.099 55.9738 114.033 55.7147C113.899 55.1832 113.786 54.6396 113.698 54.0989C113.655 53.8351 113.834 53.5864 114.098 53.5433C114.154 53.5342 114.21 53.535 114.263 53.5447C114.458 53.5805 114.62 53.7356 114.653 53.9431ZM115.767 57.8969C115.964 58.3794 116.183 58.8588 116.42 59.3222C116.542 59.5602 116.448 59.8518 116.21 59.9734C115.972 60.0948 115.68 60.0005 115.559 59.7629C115.309 59.275 115.078 58.7702 114.871 58.2625C114.77 58.0151 114.889 57.7326 115.136 57.6317C115.225 57.5956 115.318 57.5876 115.405 57.6036C115.562 57.6322 115.702 57.738 115.767 57.8969ZM117.733 61.504C118.032 61.9297 118.352 62.3488 118.687 62.7491C118.858 62.9545 118.83 63.2596 118.625 63.4309C118.42 63.6023 118.115 63.5746 117.943 63.3692C117.592 62.948 117.254 62.5071 116.941 62.0592C116.787 61.8404 116.841 61.5385 117.06 61.3852C117.17 61.3079 117.301 61.2831 117.424 61.3055C117.545 61.3276 117.657 61.3954 117.733 61.504ZM120.449 64.5861C120.835 64.9359 121.24 65.2733 121.654 65.5893C121.866 65.7514 121.907 66.0552 121.745 66.2675C121.583 66.48 121.279 66.5209 121.067 66.3587C120.631 66.0263 120.204 65.671 119.799 65.3029C119.601 65.1233 119.586 64.8173 119.766 64.6193C119.882 64.4907 120.052 64.4395 120.211 64.4685C120.297 64.4842 120.38 64.5231 120.449 64.5861ZM137.833 69.145C137.898 69.4042 137.74 69.6672 137.481 69.7323C136.95 69.8655 136.406 69.9774 135.864 70.0647C135.6 70.1072 135.352 69.9277 135.309 69.6639C135.267 69.4001 135.446 69.1518 135.71 69.1092C136.224 69.0263 136.741 68.92 137.245 68.7934C137.315 68.776 137.384 68.7745 137.45 68.7865C137.631 68.8196 137.785 68.9549 137.833 69.145ZM123.779 66.9881C124.232 67.2432 124.702 67.4817 125.175 67.697C125.419 67.8077 125.526 68.0946 125.416 68.3379C125.305 68.5813 125.019 68.6876 124.775 68.5781C124.276 68.3514 123.781 68.1002 123.304 67.8315C123.071 67.7004 122.988 67.4054 123.119 67.1723C123.223 66.9876 123.431 66.8974 123.628 66.9335C123.68 66.9429 123.73 66.961 123.779 66.9881ZM133.668 69.8117C133.673 70.0789 133.461 70.2999 133.194 70.3054C132.646 70.3163 132.091 70.3038 131.544 70.2684C131.277 70.2523 131.075 70.0209 131.092 69.7542C131.109 69.4875 131.34 69.2853 131.606 69.3025C132.127 69.3362 132.654 69.3481 133.174 69.3376C133.207 69.3369 133.24 69.3398 133.271 69.3455C133.493 69.3859 133.663 69.5778 133.668 69.8117ZM127.56 68.5855C128.059 68.7326 128.571 68.8602 129.081 68.9645C129.343 69.0179 129.512 69.2736 129.459 69.5355C129.406 69.7939 129.156 69.9619 128.898 69.9147C128.894 69.9141 128.891 69.9134 128.888 69.9127C128.35 69.803 127.812 69.6688 127.287 69.5139C127.03 69.4381 126.884 69.1691 126.959 68.9127C127.03 68.6732 127.27 68.5296 127.51 68.5735C127.527 68.5766 127.544 68.5807 127.56 68.5855Z" fill="url(#paint24_linear_2622_53129)"/>
<path d="M140.658 67.6644C140.564 67.6473 140.464 67.6575 140.371 67.7C140.144 67.8034 139.911 67.9037 139.678 67.9984C139.431 68.0991 139.311 68.3816 139.412 68.629C139.513 68.8767 139.795 68.9961 140.043 68.8948C140.288 68.7953 140.533 68.6898 140.772 68.581C141.015 68.4704 141.122 68.1833 141.012 67.9402C140.944 67.7902 140.808 67.6919 140.658 67.6644Z" fill="url(#paint25_linear_2622_53129)"/>
</g>
<g opacity="0.3">
<path d="M150.634 56.7937C150.404 56.7518 150.172 56.8815 150.091 57.1087C150.008 57.344 149.919 57.5815 149.826 57.8145C149.726 58.0627 149.847 58.3443 150.095 58.4436C150.344 58.5433 150.625 58.4222 150.724 58.1741C150.823 57.9287 150.917 57.6786 151.004 57.431C151.093 57.1789 150.961 56.9025 150.709 56.8135C150.684 56.8048 150.659 56.7983 150.634 56.7937Z" fill="url(#paint26_linear_2622_53129)"/>
<path d="M137.202 32.1599C137.462 32.2207 137.624 32.481 137.563 32.7414C137.502 33.0016 137.243 33.1629 136.982 33.1024C136.486 32.9866 135.978 32.8902 135.466 32.8143C135.203 32.7763 135.019 32.529 135.058 32.2646C135.097 32.0002 135.343 31.8176 135.608 31.8567C135.83 31.8895 136.05 31.926 136.269 31.9659C136.582 32.023 136.896 32.0882 137.202 32.1599ZM133.457 32.1378C133.454 32.405 133.235 32.6192 132.968 32.6162C132.454 32.6105 131.936 32.6263 131.425 32.6634C131.159 32.6836 130.927 32.4825 130.908 32.2159C130.888 31.9494 131.089 31.7176 131.355 31.6982C131.892 31.6591 132.438 31.6423 132.978 31.6484C133.006 31.6487 133.034 31.6515 133.06 31.6563C133.288 31.6979 133.46 31.8985 133.457 32.1378ZM139.723 32.9345C140.226 33.1275 140.727 33.3447 141.213 33.5802C141.453 33.6967 141.554 33.9862 141.437 34.2269C141.321 34.4673 141.032 34.5675 140.791 34.4513C140.329 34.2275 139.853 34.0213 139.376 33.8381C139.127 33.7422 139.002 33.4624 139.098 33.2127C139.183 32.992 139.411 32.8691 139.636 32.9101C139.665 32.9154 139.694 32.9234 139.723 32.9345ZM129.317 32.4422C129.373 32.7035 129.207 32.9608 128.945 33.0164C128.444 33.1233 127.942 33.253 127.452 33.4016C127.196 33.4794 126.926 33.335 126.848 33.0791C126.771 32.8233 126.915 32.5532 127.171 32.4755C127.686 32.3189 128.216 32.1824 128.743 32.0699C128.807 32.0563 128.87 32.0558 128.931 32.0669C129.118 32.101 129.275 32.2446 129.317 32.4422ZM143.5 34.8897C143.947 35.1883 144.388 35.5104 144.811 35.8469C145.02 36.0134 145.054 36.3178 144.888 36.5268C144.721 36.736 144.417 36.7704 144.208 36.6038C143.807 36.2842 143.388 35.9783 142.963 35.6948C142.74 35.5463 142.68 35.2458 142.829 35.0235C142.939 34.8578 143.134 34.7823 143.318 34.816C143.381 34.8275 143.443 34.8518 143.5 34.8897ZM146.756 37.6258C147.129 38.016 147.489 38.4265 147.827 38.8458C147.995 39.054 147.962 39.3586 147.754 39.5264C147.546 39.6944 147.241 39.6616 147.073 39.4533C146.752 39.0549 146.41 38.6648 146.056 38.2939C145.871 38.1005 145.879 37.7942 146.072 37.6096C146.189 37.4985 146.346 37.457 146.493 37.4838C146.59 37.5016 146.683 37.549 146.756 37.6258ZM149.339 41.0066C149.618 41.4689 149.88 41.9482 150.119 42.4308C150.237 42.6706 150.139 42.9606 149.899 43.0791C149.659 43.1977 149.369 43.0992 149.251 42.8597C149.024 42.4009 148.775 41.9458 148.51 41.5063C148.372 41.2774 148.446 40.98 148.675 40.8421C148.78 40.7787 148.899 40.7599 149.011 40.7804C149.143 40.8044 149.264 40.8829 149.339 41.0066ZM151.123 44.8703C151.294 45.3823 151.445 45.9076 151.571 46.4315C151.634 46.6913 151.475 46.9529 151.215 47.0157C150.956 47.0785 150.694 46.9189 150.631 46.6591C150.51 46.1617 150.367 45.663 150.205 45.1766C150.12 44.9231 150.257 44.6491 150.51 44.5644C150.591 44.5378 150.673 44.5331 150.75 44.5473C150.918 44.578 151.065 44.6968 151.123 44.8703ZM152.015 49.0338C152.068 49.5695 152.1 50.1147 152.108 50.6543C152.112 50.9215 151.899 51.1417 151.632 51.1457C151.365 51.1498 151.144 50.9367 151.14 50.6694C151.132 50.1568 151.102 49.639 151.051 49.1301C151.025 48.8643 151.219 48.6271 151.485 48.6005C151.531 48.5958 151.576 48.5978 151.62 48.6058C151.827 48.6435 151.992 48.8141 152.015 49.0338ZM151.97 53.287C151.923 53.6809 151.863 54.0783 151.792 54.4679C151.766 54.609 151.739 54.7493 151.71 54.8892C151.656 55.1509 151.403 55.3254 151.139 55.2659C150.877 55.2123 150.708 54.9565 150.762 54.6946C150.789 54.5618 150.815 54.4282 150.84 54.2941C150.907 53.9236 150.964 53.5461 151.009 53.1714C151.041 52.9061 151.282 52.7168 151.548 52.7488C151.557 52.75 151.567 52.7514 151.577 52.7532C151.827 52.7988 152.001 53.0316 151.97 53.287Z" fill="url(#paint27_linear_2622_53129)"/>
<path d="M124.983 33.3817C124.888 33.3644 124.787 33.375 124.693 33.4182C124.456 33.5279 124.215 33.6448 123.98 33.7655C123.742 33.8873 123.648 34.179 123.77 34.4168C123.892 34.6547 124.183 34.7489 124.421 34.627C124.645 34.5124 124.873 34.4014 125.099 34.2972C125.341 34.1855 125.447 33.8979 125.336 33.6552C125.267 33.5064 125.132 33.409 124.983 33.3817Z" fill="url(#paint28_linear_2622_53129)"/>
</g>
<path d="M122.103 41.1629C122.03 41.2256 122.004 41.3279 122.04 41.4177L123.045 43.9806C122.282 45.0157 121.679 46.1798 121.276 47.4398L118.612 48.127C118.518 48.1512 118.451 48.2319 118.443 48.3281L118.18 51.6197C118.173 51.7159 118.227 51.8064 118.315 51.845L120.837 52.9459C121.035 54.2539 121.446 55.4989 122.035 56.6418L120.636 59.0129C120.587 59.096 120.596 59.2011 120.659 59.2745L122.801 61.7878C122.863 61.8612 122.965 61.8869 123.055 61.8516L125.618 60.8465C126.653 61.6091 127.817 62.2121 129.077 62.6153L129.765 65.2792C129.789 65.3727 129.869 65.4406 129.966 65.4482L133.257 65.7109C133.354 65.7185 133.444 65.6643 133.483 65.5759L134.583 63.0545C135.892 62.8562 137.137 62.4454 138.279 61.8566L140.651 63.2553C140.734 63.3043 140.839 63.2953 140.912 63.2326L143.425 61.0907C143.499 61.0281 143.524 60.9258 143.489 60.8361L142.484 58.2731C143.247 57.2381 143.85 56.074 144.253 54.8139L146.917 54.1267C147.01 54.1026 147.078 54.0219 147.086 53.9257L147.348 50.634C147.356 50.5378 147.302 50.4473 147.213 50.4087L144.692 49.3079C144.494 47.9998 144.083 46.7548 143.494 45.6119L144.893 43.2408C144.942 43.1577 144.933 43.0526 144.87 42.9791L142.728 40.4659C142.666 40.3925 142.563 40.3669 142.474 40.4021L139.911 41.4072C138.876 40.6446 137.711 40.0417 136.451 39.6384L135.764 36.9745C135.74 36.8811 135.659 36.8132 135.563 36.8055L132.271 36.543C132.175 36.5353 132.085 36.5894 132.046 36.6779L130.945 39.1992C129.637 39.3976 128.392 39.8084 127.249 40.3972L124.878 38.9985C124.795 38.9494 124.69 38.9585 124.617 39.0211L122.103 41.1629Z" fill="url(#paint29_linear_2622_53129)"/>
<path opacity="0.56" d="M133.83 47.9834C135.563 48.5711 136.495 50.4592 135.908 52.1926C135.623 53.0323 135.028 53.7109 134.233 54.1033C133.439 54.4957 132.538 54.5552 131.699 54.2703C129.965 53.6825 129.033 51.7944 129.621 50.061C130.156 48.4841 131.767 47.5704 133.358 47.8609C133.516 47.8897 133.674 47.9304 133.83 47.9834ZM133.891 53.4089C134.5 53.108 134.956 52.5878 135.174 51.9439C135.625 50.615 134.91 49.1671 133.581 48.7166C132.252 48.2655 130.805 48.9807 130.354 50.3097C129.904 51.6386 130.618 53.0865 131.947 53.537C132.068 53.5778 132.19 53.6093 132.313 53.6317C132.846 53.7292 133.395 53.6534 133.891 53.4089Z" fill="#F5FFFF"/>
<path opacity="0.56" d="M134.286 43.157C134.013 43.107 133.735 43.0706 133.454 43.0482C133.366 43.0411 133.277 43.0355 133.189 43.0312C132.752 43.0105 132.314 43.0245 131.883 43.0732C131.877 43.0738 131.871 43.0745 131.865 43.0751C131.848 43.077 131.831 43.079 131.815 43.0812C131.782 43.0851 131.75 43.0893 131.717 43.0935C131.632 43.1049 131.567 43.1701 131.552 43.2504C131.549 43.2699 131.548 43.2904 131.551 43.311C131.565 43.417 131.663 43.4911 131.769 43.4772C132.314 43.4043 132.871 43.3899 133.423 43.4341C136.17 43.6528 138.472 45.2813 139.676 47.5512C140.346 48.8137 140.677 50.2747 140.555 51.802C140.534 52.0699 140.499 52.3346 140.451 52.5954C140.131 54.3501 139.224 55.9281 137.848 57.1006C136.268 58.4476 134.257 59.0985 132.187 58.9334C127.912 58.5919 124.715 54.8385 125.056 50.5655C125.077 50.3021 125.111 50.0406 125.158 49.7824C125.363 48.6631 125.81 47.6009 126.471 46.6738C126.488 46.6498 126.499 46.6234 126.504 46.5962C126.517 46.5248 126.489 46.4488 126.426 46.4038C126.339 46.342 126.218 46.3617 126.156 46.4491C125.462 47.4224 124.992 48.5375 124.777 49.7126C124.728 49.9838 124.692 50.2581 124.67 50.5347C124.312 55.0209 127.672 58.9616 132.156 59.3194C134.329 59.4928 136.44 58.8095 138.099 57.3954C139.544 56.1644 140.496 54.5078 140.832 52.6657C140.882 52.3919 140.918 52.114 140.941 51.8329C141.114 49.6597 140.431 47.5491 139.017 45.8899C137.786 44.4451 136.129 43.4933 134.286 43.157Z" fill="#F5FFFF"/>
<g opacity="0.3">
<path d="M100.827 29.6704C100.7 29.6471 100.567 29.7087 100.506 29.8302C100.392 30.0569 100.283 30.2901 100.183 30.5234C100.118 30.6751 100.188 30.8507 100.34 30.9161C100.491 30.982 100.667 30.9112 100.732 30.7596C100.828 30.5373 100.931 30.315 101.04 30.0986C101.114 29.9513 101.055 29.7717 100.908 29.6973C100.881 29.6842 100.854 29.6754 100.827 29.6704Z" fill="url(#paint30_linear_2622_53129)"/>
<path d="M100.016 31.8174C100.175 31.8636 100.266 32.0292 100.22 32.1879C100.104 32.588 100.007 32.9988 99.9326 33.4086C99.9168 33.495 99.902 33.582 99.888 33.6693C99.8617 33.8321 99.7083 33.943 99.5454 33.9168C99.3922 33.8859 99.2716 33.7372 99.2977 33.574C99.3125 33.4827 99.328 33.3917 99.3445 33.3013C99.4229 32.8717 99.5244 32.441 99.6462 32.0214C99.6891 31.8728 99.8375 31.7833 99.9866 31.8105C99.9963 31.8123 100.006 31.8147 100.016 31.8174ZM99.7384 35.1799C99.7194 35.6846 99.7314 36.1951 99.7744 36.697C99.7884 36.8616 99.6666 37.0061 99.502 37.0203C99.3384 37.0341 99.1927 36.9126 99.1788 36.748C99.1337 36.222 99.121 35.6868 99.1411 35.1575C99.1473 34.9925 99.2861 34.8638 99.4511 34.8699C99.4655 34.8705 99.4799 34.8722 99.4938 34.8747C99.6377 34.901 99.744 35.0295 99.7384 35.1799ZM99.9979 38.1986C100.103 38.6919 100.24 39.1838 100.406 39.6608C100.46 39.8167 100.377 39.9871 100.221 40.0411C100.065 40.0953 99.895 40.013 99.8409 39.8568C99.6672 39.3566 99.5235 38.8405 99.4131 38.3233C99.3788 38.1618 99.4817 38.0029 99.6432 37.9685C99.6825 37.9603 99.7218 37.96 99.7591 37.9668C99.8746 37.9879 99.9718 38.0766 99.9979 38.1986ZM100.991 41.0614C101.214 41.5146 101.468 41.9581 101.744 42.3789C101.835 42.5172 101.796 42.7024 101.658 42.7929C101.521 42.8832 101.335 42.8451 101.244 42.7072C100.954 42.2656 100.689 41.8008 100.455 41.3255C100.382 41.1774 100.443 40.9981 100.591 40.9251C100.651 40.896 100.715 40.8882 100.776 40.8993C100.866 40.9157 100.948 40.973 100.991 41.0614ZM102.653 43.5949C102.98 43.9801 103.333 44.3484 103.704 44.6902C103.825 44.8019 103.832 44.9912 103.721 45.1125C103.609 45.2339 103.42 45.2419 103.298 45.1295C102.91 44.7714 102.539 44.3851 102.197 43.9817C102.09 43.8557 102.106 43.6671 102.232 43.5605C102.303 43.5002 102.394 43.4788 102.479 43.4943C102.545 43.5063 102.607 43.5401 102.653 43.5949ZM104.88 45.6482C105.29 45.942 105.722 46.2128 106.164 46.4533C106.309 46.532 106.363 46.7136 106.284 46.8586C106.206 47.0035 106.025 47.0571 105.879 46.9786C105.415 46.7265 104.962 46.4423 104.531 46.1341C104.397 46.0378 104.366 45.8512 104.463 45.7171C104.532 45.62 104.649 45.577 104.759 45.5971C104.802 45.6048 104.843 45.6215 104.88 45.6482ZM107.54 47.094C108.008 47.2776 108.494 47.4343 108.984 47.5594C109.144 47.6004 109.241 47.7632 109.2 47.923C109.159 48.0829 108.997 48.1771 108.836 48.1388C108.322 48.0073 107.813 47.8431 107.322 47.6505C107.168 47.5901 107.092 47.4166 107.153 47.263C107.206 47.1279 107.346 47.053 107.484 47.0781C107.503 47.0816 107.522 47.0867 107.54 47.094ZM112.288 48.2443C112.287 48.4094 112.152 48.5424 111.987 48.5417C111.53 48.5395 111.066 48.5123 110.607 48.461C110.538 48.4536 110.468 48.4451 110.399 48.4363C110.236 48.4201 110.12 48.2654 110.141 48.1014C110.162 47.9376 110.312 47.8223 110.476 47.8433C110.541 47.8519 110.606 47.8596 110.673 47.8666C111.111 47.9159 111.554 47.9419 111.99 47.944C112.008 47.944 112.026 47.9457 112.043 47.9488C112.183 47.9744 112.288 48.0973 112.288 48.2443Z" fill="url(#paint31_linear_2622_53129)"/>
</g>
<g opacity="0.3">
<path d="M114.537 22.9649C115.049 23.0651 115.558 23.1976 116.052 23.358C116.209 23.4092 116.295 23.5777 116.244 23.7349C116.193 23.892 116.023 23.9759 115.867 23.9266C115.396 23.7733 114.91 23.6472 114.422 23.5517C114.26 23.52 114.155 23.3628 114.186 23.2009C114.218 23.0402 114.373 22.935 114.533 22.9643C114.535 22.9644 114.536 22.9647 114.537 22.9649ZM113.262 23.0769C113.249 23.2414 113.106 23.3651 112.942 23.3529C112.446 23.3165 111.944 23.3096 111.448 23.3327C111.284 23.3399 111.143 23.213 111.136 23.0478C111.128 22.8829 111.256 22.7433 111.42 22.7354C111.94 22.7113 112.467 22.7184 112.985 22.7567C112.996 22.7576 113.007 22.7589 113.018 22.7608C113.166 22.7878 113.273 22.9228 113.262 23.0769ZM117.508 23.9328C117.98 24.1537 118.443 24.4052 118.883 24.6805C119.023 24.768 119.066 24.9526 118.978 25.0924C118.891 25.2325 118.707 25.2747 118.566 25.1876C118.147 24.9248 117.705 24.685 117.255 24.474C117.105 24.404 117.041 24.226 117.111 24.0768C117.17 23.951 117.305 23.8855 117.435 23.9093C117.46 23.9138 117.484 23.9216 117.508 23.9328ZM110.208 23.1485C110.236 23.3112 110.127 23.4657 109.964 23.4935C109.475 23.5772 108.986 23.6918 108.51 23.8344C108.352 23.8815 108.186 23.7917 108.138 23.6341C108.091 23.4759 108.18 23.3092 108.339 23.2618C108.837 23.1121 109.35 22.9919 109.863 22.9042C109.899 22.8983 109.934 22.8988 109.967 22.9048C110.087 22.9268 110.187 23.0214 110.208 23.1485ZM120.157 25.5894C120.561 25.9166 120.949 26.272 121.311 26.6458C121.426 26.7644 121.423 26.9538 121.304 27.0686C121.186 27.1835 120.996 27.1807 120.882 27.0618C120.536 26.705 120.166 26.3662 119.78 26.0542C119.652 25.9504 119.632 25.7622 119.736 25.6337C119.807 25.5458 119.918 25.5089 120.022 25.5278C120.07 25.5365 120.116 25.5568 120.157 25.5894ZM122.33 27.8333C122.645 28.2486 122.937 28.6868 123.199 29.1355C123.282 29.278 123.234 29.4608 123.091 29.5441C122.949 29.6273 122.766 29.5793 122.683 29.4365C122.433 29.0088 122.154 28.5908 121.854 28.1944C121.754 28.0629 121.78 27.8753 121.912 27.7756C121.981 27.723 122.066 27.7053 122.146 27.7199C122.217 27.7328 122.283 27.7714 122.33 27.8333ZM123.904 30.5333C124.111 31.0122 124.289 31.508 124.436 32.0065C124.482 32.1651 124.391 32.3309 124.233 32.3774C124.074 32.4239 123.908 32.3327 123.862 32.1747C123.723 31.6992 123.552 31.2265 123.355 30.7701C123.29 30.6184 123.36 30.4425 123.512 30.3773C123.568 30.3528 123.627 30.3474 123.683 30.3576C123.778 30.375 123.863 30.4379 123.904 30.5333Z" fill="url(#paint32_linear_2622_53129)"/>
<path d="M107.03 23.7871C106.973 23.7767 106.913 23.7827 106.856 23.8076C106.622 23.9106 106.39 24.021 106.166 24.1356C106.019 24.2109 105.961 24.391 106.036 24.538C106.111 24.6844 106.291 24.7427 106.438 24.6678C106.652 24.5584 106.873 24.4532 107.097 24.3548C107.248 24.2883 107.316 24.1118 107.25 23.9608C107.208 23.8666 107.124 23.8043 107.03 23.7871Z" fill="url(#paint33_linear_2622_53129)"/>
</g>
<path d="M104.899 29.0638C104.85 29.1057 104.833 29.1741 104.856 29.2342L105.529 30.9492C105.019 31.6419 104.615 32.4208 104.345 33.264L102.563 33.7239C102.5 33.74 102.455 33.794 102.45 33.8584L102.274 36.061C102.269 36.1254 102.305 36.1859 102.364 36.2117L104.051 36.9483C104.184 37.8236 104.459 38.6568 104.853 39.4215L103.917 41.0081C103.884 41.0638 103.89 41.1341 103.932 41.1832L105.365 42.8649C105.407 42.914 105.476 42.9312 105.536 42.9076L107.251 42.2351C107.943 42.7453 108.722 43.1488 109.566 43.4186L110.026 45.2012C110.042 45.2638 110.096 45.3092 110.16 45.3143L112.363 45.49C112.427 45.4951 112.488 45.4588 112.513 45.3996L113.25 43.7125C114.125 43.5797 114.958 43.3049 115.723 42.9108L117.31 43.8468C117.365 43.8796 117.436 43.8735 117.485 43.8316L119.167 42.3984C119.216 42.3565 119.233 42.288 119.209 42.228L118.537 40.5129C119.047 39.8203 119.45 39.0414 119.72 38.1981L121.503 37.7383C121.565 37.7222 121.611 37.6682 121.616 37.6038L121.792 35.4012C121.797 35.3368 121.761 35.2763 121.701 35.2504L120.014 34.5138C119.881 33.6385 119.607 32.8054 119.213 32.0406L120.149 30.454C120.181 30.3984 120.175 30.3281 120.133 30.2789L118.7 28.5972C118.658 28.5481 118.59 28.5309 118.53 28.5545L116.815 29.2271C116.122 28.7168 115.343 28.3133 114.5 28.0435L114.04 26.2609C114.024 26.1984 113.97 26.153 113.906 26.1478L111.703 25.9722C111.638 25.967 111.578 26.0033 111.552 26.0625L110.815 27.7496C109.94 27.8823 109.107 28.1572 108.342 28.5512L106.756 27.6153C106.7 27.5825 106.63 27.5886 106.581 27.6304L104.899 29.0638Z" fill="url(#paint34_linear_2622_53129)"/>
<path opacity="0.56" d="M112.758 33.59C113.331 33.7838 113.793 34.1889 114.06 34.7305C114.327 35.2719 114.368 35.8852 114.174 36.4572C113.774 37.6378 112.489 38.2713 111.306 37.8725C110.126 37.4719 109.491 36.1857 109.891 35.0054C110.085 34.4335 110.49 33.9712 111.032 33.7039C111.472 33.4866 111.96 33.4193 112.434 33.5059C112.543 33.5258 112.651 33.5539 112.758 33.59ZM113.608 36.2654C113.75 35.8446 113.721 35.3935 113.524 34.995C113.327 34.5968 112.987 34.2988 112.567 34.1561C112.146 34.014 111.695 34.0433 111.296 34.24C110.898 34.4364 110.6 34.7767 110.458 35.1972C110.163 36.0657 110.63 37.0117 111.498 37.3064C111.577 37.3329 111.656 37.3532 111.735 37.3677C112.532 37.5133 113.34 37.0554 113.608 36.2654Z" fill="#F5FFFF"/>
<path opacity="0.56" d="M113.076 30.2307C112.89 30.1967 112.701 30.172 112.508 30.1565C112.126 30.1259 111.741 30.1342 111.361 30.1812C111.344 30.1835 111.327 30.1857 111.31 30.1879C111.178 30.2054 111.078 30.3061 111.055 30.4302C111.05 30.4603 111.049 30.4919 111.053 30.5238C111.075 30.6874 111.226 30.8016 111.389 30.7804C111.743 30.7331 112.103 30.7238 112.46 30.7525L112.46 30.7525C112.48 30.754 112.5 30.7559 112.519 30.7576C113.364 30.8332 114.157 31.1163 114.845 31.5741C115.218 31.8226 115.56 32.123 115.861 32.4703C115.864 32.4731 115.866 32.4759 115.869 32.4787C115.876 32.4875 115.884 32.496 115.891 32.5047C116.763 33.528 117.184 34.8294 117.077 36.1695C117.064 36.3429 117.041 36.5142 117.01 36.6831C116.803 37.819 116.216 38.8406 115.325 39.5999C114.302 40.4718 113 40.893 111.66 40.786C110.321 40.6787 109.102 40.0567 108.23 39.0338C107.358 38.0106 106.937 36.7091 107.043 35.369C107.057 35.1985 107.079 35.0292 107.11 34.8621C107.242 34.1374 107.532 33.4499 107.96 32.8498C107.986 32.8128 108.003 32.7719 108.01 32.7299C108.031 32.6197 107.987 32.5023 107.89 32.4329C107.755 32.3374 107.569 32.3681 107.473 32.5028C106.994 33.1743 106.67 33.9437 106.522 34.7542C106.488 34.9415 106.463 35.1307 106.447 35.3214C106.328 36.8208 106.799 38.2768 107.775 39.4216C108.751 40.5662 110.113 41.2634 111.613 41.382C113.112 41.5017 114.568 41.0304 115.713 40.0546C116.709 39.2054 117.366 38.0625 117.598 36.7915C117.632 36.6029 117.658 36.4111 117.673 36.2172C117.905 33.3145 115.881 30.7428 113.076 30.2307Z" fill="#F5FFFF"/>
</g>
<defs>
<linearGradient id="paint0_linear_2622_53129" x1="174.636" y1="195.212" x2="54.9267" y2="46.5405" gradientUnits="userSpaceOnUse">
<stop stop-color="#B37CFF"/>
<stop offset="1" stop-color="#F895E7"/>
</linearGradient>
<linearGradient id="paint1_linear_2622_53129" x1="7.59042" y1="127.047" x2="45.6258" y2="80.1043" gradientUnits="userSpaceOnUse">
<stop stop-color="#A737D5"/>
<stop offset="1" stop-color="#EF497A"/>
</linearGradient>
<linearGradient id="paint2_linear_2622_53129" x1="53.5682" y1="73.358" x2="29.1172" y2="24.5169" gradientUnits="userSpaceOnUse">
<stop stop-color="#CB236D"/>
<stop offset="1" stop-color="#4C246D"/>
</linearGradient>
<linearGradient id="paint3_linear_2622_53129" x1="90.8597" y1="146.792" x2="84.3209" y2="-46.7599" gradientUnits="userSpaceOnUse">
<stop stop-color="#2B3582"/>
<stop offset="1" stop-color="#150E42"/>
</linearGradient>
<linearGradient id="paint4_linear_2622_53129" x1="55.585" y1="167.239" x2="136.945" y2="-5.24242" gradientUnits="userSpaceOnUse">
<stop stop-color="#53D8FF"/>
<stop offset="1" stop-color="#3840F7"/>
</linearGradient>
<linearGradient id="paint5_linear_2622_53129" x1="101.106" y1="11.7955" x2="68.4043" y2="54.8136" gradientUnits="userSpaceOnUse">
<stop stop-color="#2B3582"/>
<stop offset="1" stop-color="#150E42"/>
</linearGradient>
<linearGradient id="paint6_linear_2622_53129" x1="104.693" y1="14.5224" x2="71.9914" y2="57.5404" gradientUnits="userSpaceOnUse">
<stop stop-color="#2B3582"/>
<stop offset="1" stop-color="#150E42"/>
</linearGradient>
<linearGradient id="paint7_linear_2622_53129" x1="100.572" y1="17.1538" x2="77.9924" y2="58.6147" gradientUnits="userSpaceOnUse">
<stop stop-color="#53D8FF"/>
<stop offset="1" stop-color="#3840F7"/>
</linearGradient>
<linearGradient id="paint8_linear_2622_53129" x1="105.586" y1="77.8078" x2="95.3727" y2="118.267" gradientUnits="userSpaceOnUse">
<stop stop-color="#FDF53F"/>
<stop offset="1" stop-color="#D93C65"/>
</linearGradient>
<linearGradient id="paint9_linear_2622_53129" x1="117.606" y1="51.4185" x2="77.5391" y2="108.376" gradientUnits="userSpaceOnUse">
<stop stop-color="#FDF53F"/>
<stop offset="1" stop-color="#D93C65"/>
</linearGradient>
<linearGradient id="paint10_linear_2622_53129" x1="157.198" y1="154.509" x2="151.836" y2="154.509" gradientUnits="userSpaceOnUse">
<stop stop-color="#2B3582"/>
<stop offset="1" stop-color="#150E42"/>
</linearGradient>
<linearGradient id="paint11_linear_2622_53129" x1="156.654" y1="152.017" x2="154.48" y2="152.017" gradientUnits="userSpaceOnUse">
<stop stop-color="#F9B776"/>
<stop offset="1" stop-color="#F47960"/>
</linearGradient>
<linearGradient id="paint12_linear_2622_53129" x1="145.795" y1="154.423" x2="137.381" y2="154.423" gradientUnits="userSpaceOnUse">
<stop stop-color="#2B3582"/>
<stop offset="1" stop-color="#150E42"/>
</linearGradient>
<linearGradient id="paint13_linear_2622_53129" x1="145.667" y1="151.051" x2="143.504" y2="151.051" gradientUnits="userSpaceOnUse">
<stop stop-color="#F9B776"/>
<stop offset="1" stop-color="#F47960"/>
</linearGradient>
<linearGradient id="paint14_linear_2622_53129" x1="158.005" y1="131.867" x2="143.261" y2="131.867" gradientUnits="userSpaceOnUse">
<stop stop-color="#2B3582"/>
<stop offset="1" stop-color="#150E42"/>
</linearGradient>
<linearGradient id="paint15_linear_2622_53129" x1="144.359" y1="77.5123" x2="126.007" y2="124.702" gradientUnits="userSpaceOnUse">
<stop stop-color="#CB236D"/>
<stop offset="0.1239" stop-color="#AD236D"/>
<stop offset="0.2931" stop-color="#8A246D"/>
<stop offset="0.4652" stop-color="#6F246D"/>
<stop offset="0.6391" stop-color="#5B246D"/>
<stop offset="0.8159" stop-color="#50246D"/>
<stop offset="1" stop-color="#4C246D"/>
</linearGradient>
<linearGradient id="paint16_linear_2622_53129" x1="131.197" y1="87.7235" x2="123.159" y2="87.7235" gradientUnits="userSpaceOnUse">
<stop stop-color="#F9B776"/>
<stop offset="1" stop-color="#F47960"/>
</linearGradient>
<linearGradient id="paint17_linear_2622_53129" x1="138.335" y1="100.712" x2="178.629" y2="131.785" gradientUnits="userSpaceOnUse">
<stop stop-color="#CB236D"/>
<stop offset="1" stop-color="#4C246D"/>
</linearGradient>
<linearGradient id="paint18_linear_2622_53129" x1="112.997" y1="89.476" x2="130.364" y2="111.083" gradientUnits="userSpaceOnUse">
<stop stop-color="#F9B776"/>
<stop offset="1" stop-color="#F47960"/>
</linearGradient>
<linearGradient id="paint19_linear_2622_53129" x1="109.704" y1="92.1226" x2="127.071" y2="113.729" gradientUnits="userSpaceOnUse">
<stop stop-color="#F9B776"/>
<stop offset="1" stop-color="#F47960"/>
</linearGradient>
<linearGradient id="paint20_linear_2622_53129" x1="132.535" y1="76.418" x2="149.355" y2="107.324" gradientUnits="userSpaceOnUse">
<stop stop-color="#F9B776"/>
<stop offset="1" stop-color="#F47960"/>
</linearGradient>
<linearGradient id="paint21_linear_2622_53129" x1="137.836" y1="82.112" x2="138.238" y2="94.4334" gradientUnits="userSpaceOnUse">
<stop stop-color="#F9B776"/>
<stop offset="1" stop-color="#F47960"/>
</linearGradient>
<linearGradient id="paint22_linear_2622_53129" x1="136.242" y1="81.3712" x2="145.278" y2="98.1526" gradientUnits="userSpaceOnUse">
<stop stop-color="#2B3582"/>
<stop offset="1" stop-color="#150E42"/>
</linearGradient>
<linearGradient id="paint23_linear_2622_53129" x1="142.24" y1="94.7536" x2="140.896" y2="86.3172" gradientUnits="userSpaceOnUse">
<stop stop-color="#F9B776"/>
<stop offset="1" stop-color="#F47960"/>
</linearGradient>
<linearGradient id="paint24_linear_2622_53129" x1="139.671" y1="61.9945" x2="111.84" y2="55.0683" gradientUnits="userSpaceOnUse">
<stop stop-color="#B37CFF"/>
<stop offset="1" stop-color="#F895E7"/>
</linearGradient>
<linearGradient id="paint25_linear_2622_53129" x1="139.423" y1="68.1489" x2="141.009" y2="68.4385" gradientUnits="userSpaceOnUse">
<stop stop-color="#B37CFF"/>
<stop offset="1" stop-color="#F895E7"/>
</linearGradient>
<linearGradient id="paint26_linear_2622_53129" x1="149.867" y1="57.5328" x2="150.956" y2="57.7315" gradientUnits="userSpaceOnUse">
<stop stop-color="#B37CFF"/>
<stop offset="1" stop-color="#F895E7"/>
</linearGradient>
<linearGradient id="paint27_linear_2622_53129" x1="153.89" y1="46.1319" x2="125.3" y2="39.0168" gradientUnits="userSpaceOnUse">
<stop stop-color="#B37CFF"/>
<stop offset="1" stop-color="#F895E7"/>
</linearGradient>
<linearGradient id="paint28_linear_2622_53129" x1="123.765" y1="33.8841" x2="125.331" y2="34.17" gradientUnits="userSpaceOnUse">
<stop stop-color="#B37CFF"/>
<stop offset="1" stop-color="#F895E7"/>
</linearGradient>
<linearGradient id="paint29_linear_2622_53129" x1="162.469" y1="122.317" x2="94.1767" y2="-41.3516" gradientUnits="userSpaceOnUse">
<stop stop-color="#A737D5"/>
<stop offset="1" stop-color="#EF497A"/>
</linearGradient>
<linearGradient id="paint30_linear_2622_53129" x1="100.228" y1="30.2324" x2="101.002" y2="30.3738" gradientUnits="userSpaceOnUse">
<stop stop-color="#B37CFF"/>
<stop offset="1" stop-color="#F895E7"/>
</linearGradient>
<linearGradient id="paint31_linear_2622_53129" x1="113.775" y1="42.3046" x2="98.051" y2="38.3915" gradientUnits="userSpaceOnUse">
<stop stop-color="#B37CFF"/>
<stop offset="1" stop-color="#F895E7"/>
</linearGradient>
<linearGradient id="paint32_linear_2622_53129" x1="125.194" y1="29.1294" x2="107.804" y2="24.8018" gradientUnits="userSpaceOnUse">
<stop stop-color="#B37CFF"/>
<stop offset="1" stop-color="#F895E7"/>
</linearGradient>
<linearGradient id="paint33_linear_2622_53129" x1="106.047" y1="24.1332" x2="107.231" y2="24.3494" gradientUnits="userSpaceOnUse">
<stop stop-color="#B37CFF"/>
<stop offset="1" stop-color="#F895E7"/>
</linearGradient>
<linearGradient id="paint34_linear_2622_53129" x1="150.283" y1="127.401" x2="81.9907" y2="-36.2671" gradientUnits="userSpaceOnUse">
<stop stop-color="#A737D5"/>
<stop offset="1" stop-color="#EF497A"/>
</linearGradient>
<clipPath id="clip0_2622_53129">
<rect width="180" height="180" fill="white"/>
</clipPath>
</defs>
</svg>
