<svg width="24" height="24" viewBox="0 0 24 24" fill="none" xmlns="http://www.w3.org/2000/svg">
<path d="M7.99 9.53H14.69C15.0629 9.48643 15.3441 9.17047 15.3441 8.795C15.3441 8.41953 15.0629 8.10357 14.69 8.06H7.99C7.70694 8.02693 7.43004 8.15934 7.27809 8.40044C7.12614 8.64153 7.12614 8.94847 7.27809 9.18956C7.43004 9.43066 7.70694 9.56307 7.99 9.53Z" fill="#152A38"/>
<path d="M7.99 17.53H12.77C13.0531 17.5631 13.33 17.4307 13.4819 17.1896C13.6339 16.9485 13.6339 16.6415 13.4819 16.4004C13.33 16.1593 13.0531 16.0269 12.77 16.06H7.99C7.70694 16.0269 7.43004 16.1593 7.27809 16.4004C7.12614 16.6415 7.12614 16.9485 7.27809 17.1896C7.43004 17.4307 7.70694 17.5631 7.99 17.53Z" fill="#152A38"/>
<path d="M16.6 13.53H7.99C7.70694 13.5631 7.43004 13.4307 7.27809 13.1896C7.12614 12.9485 7.12614 12.6415 7.27809 12.4004C7.43004 12.1593 7.70694 12.0269 7.99 12.06H16.6C16.9729 12.1036 17.2541 12.4195 17.2541 12.795C17.2541 13.1705 16.9729 13.4864 16.6 13.53Z" fill="#152A38"/>
<path fill-rule="evenodd" clip-rule="evenodd" d="M15.79 22.59H8.79C6.14294 22.5845 3.99999 20.4371 4 17.79V6.79C4.0055 4.14684 6.14684 2.0055 8.79 2H15.79C18.4371 1.99999 20.5845 4.14294 20.59 6.79V17.79C20.59 19.063 20.0843 20.2839 19.1841 21.1841C18.2839 22.0843 17.063 22.59 15.79 22.59ZM8.79 3.59C7.02497 3.59549 5.59549 5.02497 5.59 6.79V17.79C5.58999 19.5589 7.02107 20.9945 8.79 21H15.79C17.5628 21 19 19.5628 19 17.79V6.79C18.9945 5.02107 17.5589 3.58999 15.79 3.59H8.79Z" fill="#152A38"/>
</svg>
