<svg width="12" height="11" viewBox="0 0 12 11" fill="none" xmlns="http://www.w3.org/2000/svg">
<path fill-rule="evenodd" clip-rule="evenodd" d="M1.04348 1.03286V8.13379H4.37364C4.54289 8.13406 4.70997 8.17804 4.85679 8.26139C5.0028 8.34428 5.12456 8.46325 5.21018 8.60665L6 9.91138L6.78978 8.60671C6.87541 8.46328 6.99719 8.34429 7.14321 8.26139C7.29003 8.17804 7.45628 8.13406 7.62553 8.13379L10.9565 8.13379V1.03286H1.04348ZM7.23831 8.87051L7.62636 9.10066V9.09604L7.23831 8.87051ZM7.62636 9.09604V9.10066L7.68575 9.13589C7.68662 9.13462 7.68745 9.13332 7.68823 9.132L7.62636 9.09604ZM7.66728 9.16666H11.0217C11.2812 9.16666 11.53 9.06464 11.7135 8.88305C11.8969 8.70145 12 8.45516 12 8.19835V0.968309C12 0.711498 11.8969 0.465205 11.7135 0.283611C11.53 0.102018 11.2812 0 11.0217 0H0.978261C0.71881 0 0.469985 0.102018 0.286526 0.283611C0.103067 0.465204 0 0.711497 0 0.968309V8.19835C0 8.45516 0.103066 8.70145 0.286526 8.88305C0.469986 9.06464 0.718811 9.16666 0.978261 9.16666H4.33272L5.1587 10.5311L5.16181 10.5362C5.24986 10.6779 5.37313 10.795 5.51986 10.8762C5.66659 10.9574 5.8319 11 6 11C6.16811 11 6.33341 10.9574 6.48014 10.8762C6.62687 10.795 6.75014 10.6779 6.83819 10.5362L7.66728 9.16666Z" fill="#353535"/>
</svg>
