<svg width="22" height="22" viewBox="0 0 22 22" fill="none" xmlns="http://www.w3.org/2000/svg">
<path fill-rule="evenodd" clip-rule="evenodd" d="M3.72328 7.03038C5.03063 3.89113 8.09381 1.8427 11.4944 1.83361C15.1594 1.81431 18.4182 4.16188 19.5607 7.64433C20.7032 11.1268 19.4683 14.9486 16.504 17.1041C13.5398 19.2596 9.52348 19.2564 6.56273 17.0961L3.92273 19.7361C3.65431 20.0042 3.21948 20.0042 2.95106 19.7361C2.68298 19.4677 2.68298 19.0329 2.95106 18.7644L5.50856 16.2069C3.11964 13.7868 2.41593 10.1696 3.72328 7.03038ZM4.949 12.9885C6.04668 15.6337 8.63049 17.3565 11.4944 17.3528V17.3161C15.3813 17.3112 18.5367 14.1721 18.5619 10.2853C18.5656 7.42137 16.8428 4.83757 14.1976 3.73989C11.5524 2.6422 8.50637 3.24707 6.48128 5.27216C4.45618 7.29725 3.85132 10.3433 4.949 12.9885Z" fill="#F4FFFF"/>
</svg>
