<svg width="24" height="24" viewBox="0 0 24 24" fill="none" xmlns="http://www.w3.org/2000/svg">
<path fill-rule="evenodd" clip-rule="evenodd" d="M20.7401 6.85986L22.0001 15.1999C22.5101 18.8499 20.0001 22.1699 16.6001 22.1999H7.34011C4.00011 22.1999 1.46011 18.8499 2.00011 15.1999L3.26011 6.85986C3.55924 4.10223 5.82879 1.97719 8.60011 1.85986H15.4001C18.1714 1.97719 20.441 4.10223 20.7401 6.85986ZM16.6301 20.6699C17.7038 20.6544 18.7166 20.1681 19.4001 19.3399C20.3168 18.2542 20.7148 16.8229 20.4901 15.4199L19.2601 7.07986C19.0845 5.04415 17.4401 3.44659 15.4001 3.32986H8.60011C6.56017 3.44659 4.91575 5.04415 4.74011 7.07986L3.51011 15.4199C3.28542 16.8229 3.68341 18.2542 4.60011 19.3399C5.28362 20.1681 6.29638 20.6544 7.37011 20.6699H16.6301Z" fill="#F4FFFF"/>
<path d="M15.1501 7.05986C14.7359 7.05986 14.4001 7.39565 14.4001 7.80986C14.4001 9.13535 13.3256 10.2099 12.0001 10.2099C10.6746 10.2099 9.60011 9.13535 9.60011 7.80986C9.60011 7.39565 9.26433 7.05986 8.85011 7.05986C8.4359 7.05986 8.10011 7.39565 8.10011 7.80986C8.10011 9.2032 8.84345 10.4907 10.0501 11.1874C11.2568 11.884 12.7434 11.884 13.9501 11.1874C15.1568 10.4907 15.9001 9.2032 15.9001 7.80986C15.8947 7.3979 15.5621 7.06525 15.1501 7.05986Z" fill="#F4FFFF"/>
</svg>
