<svg width="24" height="24" viewBox="0 0 24 24" fill="none" xmlns="http://www.w3.org/2000/svg">
<path fill-rule="evenodd" clip-rule="evenodd" d="M20.7399 6.85986L21.9999 15.1999C22.5099 18.8499 19.9999 22.1699 16.5999 22.1999H7.33987C3.99987 22.1999 1.45987 18.8499 1.99987 15.1999L3.25987 6.85986C3.55899 4.10223 5.82855 1.97719 8.59987 1.85986H15.3999C18.1712 1.97719 20.4407 4.10223 20.7399 6.85986ZM16.6299 20.6699C17.7036 20.6544 18.7164 20.1681 19.3999 19.3399C20.3166 18.2542 20.7146 16.8229 20.4899 15.4199L19.2599 7.07986C19.0842 5.04415 17.4398 3.44659 15.3999 3.32986H8.59987C6.55993 3.44659 4.9155 5.04415 4.73987 7.07986L3.50987 15.4199C3.28518 16.8229 3.68317 18.2542 4.59987 19.3399C5.28338 20.1681 6.29613 20.6544 7.36987 20.6699H16.6299Z" fill="#FFECCE"/>
<path d="M15.1499 7.05986C14.7357 7.05986 14.3999 7.39565 14.3999 7.80986C14.3999 9.13535 13.3254 10.2099 11.9999 10.2099C10.6744 10.2099 9.59987 9.13535 9.59987 7.80986C9.59987 7.39565 9.26408 7.05986 8.84987 7.05986C8.43565 7.05986 8.09987 7.39565 8.09987 7.80986C8.09987 9.2032 8.8432 10.4907 10.0499 11.1874C11.2565 11.884 12.7432 11.884 13.9499 11.1874C15.1565 10.4907 15.8999 9.2032 15.8999 7.80986C15.8945 7.3979 15.5618 7.06525 15.1499 7.05986Z" fill="#FFECCE"/>
</svg>
