<svg width="24" height="24" viewBox="0 0 24 24" fill="none" xmlns="http://www.w3.org/2000/svg">
<g clip-path="url(#clip0_912_33899)">
<path d="M11.476 18.5C11.2108 18.5 10.9564 18.6054 10.7689 18.7929C10.5814 18.9804 10.476 19.2348 10.476 19.5V19C10.476 19.7956 10.1599 20.5587 9.59732 21.1213C9.03471 21.6839 8.27165 22 7.476 22H5C4.20435 22 3.44129 21.6839 2.87868 21.1213C2.31607 20.5587 2 19.7956 2 19V5C2 4.20435 2.31607 3.44129 2.87868 2.87868C3.44129 2.31607 4.20435 2 5 2H7.476C8.27165 2 9.03471 2.31607 9.59732 2.87868C10.1599 3.44129 10.476 4.20435 10.476 5V4.5C10.476 4.76522 10.5814 5.01957 10.7689 5.20711C10.9564 5.39464 11.2108 5.5 11.476 5.5C11.7412 5.5 11.9956 5.39464 12.1831 5.20711C12.3706 5.01957 12.476 4.76522 12.476 4.5V5C12.4744 3.67441 11.9471 2.40356 11.0098 1.46622C10.0724 0.528882 8.80159 0.00158786 7.476 0H5C3.67441 0.00158786 2.40356 0.528882 1.46622 1.46622C0.528882 2.40356 0.00158786 3.67441 0 5L0 19C0.00158786 20.3256 0.528882 21.5964 1.46622 22.5338C2.40356 23.4711 3.67441 23.9984 5 24H7.476C8.80159 23.9984 10.0724 23.4711 11.0098 22.5338C11.9471 21.5964 12.4744 20.3256 12.476 19V19.5C12.476 19.2348 12.3706 18.9804 12.1831 18.7929C11.9956 18.6054 11.7412 18.5 11.476 18.5Z" fill="#152A38"/>
<path d="M22.867 9.87859L18.281 5.29259C18.1888 5.19708 18.0784 5.1209 17.9564 5.06849C17.8344 5.01608 17.7032 4.9885 17.5704 4.98734C17.4376 4.98619 17.3059 5.01149 17.183 5.06177C17.0602 5.11205 16.9485 5.18631 16.8546 5.2802C16.7607 5.37409 16.6865 5.48574 16.6362 5.60864C16.5859 5.73154 16.5606 5.86321 16.5618 5.99599C16.5629 6.12877 16.5905 6.25999 16.6429 6.382C16.6953 6.504 16.7715 6.61435 16.867 6.70659L21.13 10.9696L6 10.9996C5.73478 10.9996 5.48043 11.1049 5.29289 11.2925C5.10536 11.48 5 11.7344 5 11.9996C5 12.2648 5.10536 12.5192 5.29289 12.7067C5.48043 12.8942 5.73478 12.9996 6 12.9996L21.188 12.9696L16.865 17.2926C16.7695 17.3848 16.6933 17.4952 16.6409 17.6172C16.5885 17.7392 16.5609 17.8704 16.5598 18.0032C16.5586 18.136 16.5839 18.2676 16.6342 18.3905C16.6845 18.5134 16.7587 18.6251 16.8526 18.719C16.9465 18.8129 17.0582 18.8871 17.181 18.9374C17.3039 18.9877 17.4356 19.013 17.5684 19.0118C17.7012 19.0107 17.8324 18.9831 17.9544 18.9307C18.0764 18.8783 18.1868 18.8021 18.279 18.7066L22.865 14.1206C23.4277 13.5583 23.744 12.7955 23.7444 12C23.7447 11.2045 23.4292 10.4414 22.867 9.87859Z" fill="#152A38"/>
</g>
<defs>
<clipPath id="clip0_912_33899">
<rect width="24" height="24" fill="white"/>
</clipPath>
</defs>
</svg>
