<svg width="24" height="24" viewBox="0 0 24 24" fill="none" xmlns="http://www.w3.org/2000/svg">
<path fill-rule="evenodd" clip-rule="evenodd" d="M4.56796 18.285C5.71196 18.724 6.97996 18.902 6.99396 18.904C7.02296 18.909 8.26696 19.112 10.425 18.783C12.55 18.459 14.383 17.08 14.401 17.066C14.464 17.025 15.839 16.185 17.326 13.669C18.806 11.164 18.553 8.332 18.55 8.304C18.535 8.146 18.594 7.991 18.712 7.885C18.712 7.885 19.018 7.605 19.426 7.272C19.145 7.323 18.9 7.359 18.852 7.366C18.62 7.395 18.406 7.274 18.318 7.064C18.231 6.853 18.296 6.61 18.478 6.472C18.484 6.469 18.784 6.24 19.154 5.919C18.618 6.1 18.162 6.183 18.135 6.188C17.919 6.222 17.71 6.123 17.609 5.935C17.612 5.961 17.439 5.799 16.828 5.391C16.235 4.996 15.211 4.98 14.867 5.008C14.867 5.008 13.455 5.184 12.593 6.384C11.738 7.573 12.086 8.998 12.089 9.013C12.13 9.17 12.091 9.337 11.986 9.461C11.881 9.584 11.718 9.645 11.562 9.636L10.625 9.555C10.441 9.541 9.40696 9.364 8.35796 8.993C7.30596 8.622 6.67796 8.236 5.80896 7.703C5.22796 7.347 4.45896 6.602 3.95396 6.084C3.79896 6.567 3.67896 7.281 3.92996 8.044C4.33496 9.28 5.21196 9.794 5.21996 9.799C5.40796 9.902 5.50796 10.114 5.46996 10.325C5.43196 10.536 5.26396 10.699 5.05096 10.73C4.95296 10.748 4.70396 10.753 4.15396 10.639C4.04896 10.618 3.94596 10.592 3.84896 10.561C3.93896 10.95 4.15096 11.539 4.64896 12.056C5.47496 12.916 6.31096 13.025 6.34596 13.029C6.59196 13.058 6.78196 13.264 6.78896 13.512C6.79596 13.76 6.62296 13.974 6.37996 14.018C6.37996 14.018 5.80996 14.12 5.45296 14.155C5.43696 14.156 5.42096 14.158 5.40396 14.159C5.43396 14.208 5.46496 14.257 5.49596 14.304C5.50496 14.319 5.97096 15.05 6.74896 15.393C7.53696 15.74 8.06796 15.712 8.07196 15.71C8.29496 15.691 8.49796 15.825 8.57596 16.03C8.65396 16.236 8.59196 16.468 8.41796 16.602C8.38096 16.632 7.49196 17.315 5.99896 17.927C5.53496 18.116 5.04296 18.226 4.56796 18.285ZM8.10996 19.972C7.31096 19.972 6.86996 19.897 6.83896 19.891C6.79296 19.886 5.25796 19.67 3.93896 19.109C1.90296 18.246 1.96196 17.958 2.01896 17.68C2.06996 17.429 2.36196 17.247 2.61796 17.286C3.75796 17.42 4.85196 17.315 5.61996 17.001C6.05496 16.823 6.43496 16.638 6.75096 16.468C6.62196 16.423 6.48696 16.37 6.34596 16.308C5.27696 15.837 4.67596 14.88 4.65096 14.839C4.54296 14.673 4.26896 14.236 4.19096 13.98C4.11796 13.738 4.11096 13.709 4.11096 13.709C4.07496 13.543 4.12496 13.365 4.24396 13.245C4.27996 13.208 4.32196 13.178 4.36696 13.153C4.22096 13.035 4.07396 12.901 3.92796 12.75C2.82696 11.604 2.78496 10.226 2.78396 10.168L2.76496 9.788C2.75596 9.603 2.84996 9.429 3.00896 9.334C3.12796 9.263 3.26996 9.247 3.39996 9.282C3.24096 9.016 3.09496 8.709 2.97996 8.355C2.37996 6.531 3.33896 4.99 3.38096 4.926C3.46396 4.793 3.60496 4.708 3.75996 4.695C3.91796 4.681 4.06896 4.742 4.17396 4.858C4.54896 5.275 5.66896 6.444 6.33196 6.85C7.17896 7.371 7.73896 7.714 8.69096 8.05C9.66996 8.396 10.611 8.55 10.703 8.558L11.024 8.586C10.981 7.9 11.059 6.804 11.781 5.8C12.91 4.229 14.698 4.02 14.774 4.013C14.85 4.005 16.377 3.889 17.383 4.559C17.79 4.831 18.043 5.018 18.203 5.151C18.486 5.085 18.968 4.953 19.385 4.748L20.23 4.331C20.409 4.239 20.625 4.265 20.779 4.397C20.932 4.528 20.991 4.738 20.931 4.93C20.906 5.004 20.747 5.484 20.463 5.941C20.639 5.872 20.772 5.816 20.774 5.815C20.98 5.733 21.215 5.791 21.355 5.962C21.494 6.135 21.503 6.378 21.378 6.56C21.311 6.658 20.705 7.529 20.197 7.935C19.94 8.141 19.711 8.337 19.562 8.467C19.598 9.279 19.581 11.818 18.188 14.177C16.553 16.944 15.021 17.858 14.957 17.895C14.925 17.924 12.96 19.408 10.576 19.771C9.55696 19.928 8.72696 19.972 8.10996 19.972Z" fill="#F4FFFF"/>
</svg>
