<svg width="22" height="22" viewBox="0 0 22 22" fill="none" xmlns="http://www.w3.org/2000/svg">
<path fill-rule="evenodd" clip-rule="evenodd" d="M2.50181 7.22558C3.85826 3.95809 7.04982 1.82979 10.5877 1.8335C12.9061 1.8335 15.1295 2.75514 16.7681 4.39541C18.4066 6.03568 19.3259 8.26003 19.3235 10.5785C19.3235 14.1164 17.1919 17.3057 13.9229 18.6587C10.654 20.0117 6.89194 19.2619 4.39162 16.7589C1.89129 14.2559 1.14537 10.4931 2.50181 7.22558ZM17.4443 13.2368C17.7644 12.3873 17.926 11.4863 17.921 10.5785C17.9416 8.90897 17.3919 7.28239 16.3627 5.96767C15.9502 6.65517 15.171 7.68183 14.2085 7.68183C13.8382 7.65206 13.4656 7.68932 13.1085 7.79183V7.89267C13.1085 8.05767 13.5577 8.50683 13.796 8.74517C14.3896 9.18777 14.7848 9.84648 14.896 10.5785C14.896 12.0452 15.0427 12.4943 15.171 12.6043C15.9635 12.661 16.7365 12.8761 17.4443 13.2368ZM3.25434 10.5785C3.246 8.94779 3.78144 7.36083 4.776 6.0685C5.03574 6.54222 5.53755 6.83199 6.07767 6.82017C6.81938 7.19415 7.47499 7.71864 8.00267 8.36017C7.61442 8.59889 7.26249 8.89217 6.95767 9.231C6.92938 9.25824 6.89857 9.28824 6.86593 9.32003C6.61305 9.56628 6.25026 9.91955 6.096 9.92767C5.67161 9.91484 5.26075 10.0778 4.96052 10.378C4.66029 10.6782 4.49734 11.0891 4.51017 11.5135C4.51149 11.6186 4.53656 11.722 4.5835 11.816L5.4085 13.466C5.41903 14.415 5.5704 15.3573 5.85767 16.2618C4.18547 14.8506 3.23077 12.7665 3.25434 10.5785ZM8.08517 17.4718C8.88738 17.763 9.73426 17.9119 10.5877 17.9118V17.9393C13.1105 17.9563 15.465 16.6752 16.821 14.5477C16.2681 14.2799 15.6778 14.0976 15.0702 14.0068C13.4843 14.0068 13.4843 11.7335 13.4843 10.6335C13.4843 10.4674 13.0757 10.0594 12.8232 9.80729C12.811 9.79509 12.7991 9.78326 12.7877 9.77183C12.1983 9.3269 11.8067 8.66875 11.6968 7.9385C11.6968 6.35267 13.3102 6.35267 14.1718 6.35267C14.4102 6.3435 14.9785 5.66517 15.3268 4.98683C12.6087 2.68588 8.63031 2.67041 5.89434 4.95017C5.90821 5.02901 5.90821 5.10966 5.89434 5.1885C5.90351 5.4085 6.00434 5.4085 6.10517 5.4085C7.20517 5.4085 9.671 7.64517 9.70767 8.69017C9.70913 8.92582 9.60975 9.15085 9.43458 9.30849C9.25942 9.46614 9.0252 9.54135 8.791 9.51517C8.62601 9.52433 8.17684 9.9735 7.93851 10.2118C7.49258 10.8017 6.83551 11.196 6.10517 11.3118C6.03184 11.3118 5.92184 11.3118 5.92184 11.4035L6.71934 12.9343C6.76628 13.0283 6.79135 13.1318 6.79267 13.2368C6.79267 14.236 7.01267 15.8585 7.48934 16.3443C7.82191 16.6325 8.03449 17.0347 8.08517 17.4718Z" fill="#F4FFFF"/>
</svg>
