<svg width="180" height="167" viewBox="0 0 180 167" fill="none" xmlns="http://www.w3.org/2000/svg">
<path d="M0 110L23.5004 40L47 110H0Z" fill="url(#paint0_linear_776_5975)"/>
<path opacity="0.24" d="M0 110L23 40V110H0Z" fill="#0B3B61"/>
<path d="M22 110L22.5002 40L23 110H22Z" fill="#0B3B61"/>
<path d="M133 110L156.5 40L180 110H133Z" fill="url(#paint1_linear_776_5975)"/>
<path opacity="0.24" d="M133 110L156 40V110H133Z" fill="#0B3B61"/>
<path d="M155 110L155.5 40L156 110H155Z" fill="#0B3B61"/>
<path d="M100 110L128.5 23L157 110H100Z" fill="url(#paint2_linear_776_5975)"/>
<path opacity="0.24" d="M100 110L128 23V110H100Z" fill="#0B3B61"/>
<path d="M127 110L128.5 23L130 110H127Z" fill="#0B3B61"/>
<path d="M25 110L86.8157 0L148 110H25Z" fill="url(#paint3_linear_776_5975)"/>
<path d="M86.2978 7L28 110H144L86.2978 7Z" fill="url(#paint4_linear_776_5975)"/>
<path d="M113 54L108.963 47H64.0786L60 54H113Z" fill="#664428"/>
<path d="M104 39L99.9372 32H71.105L67 39H104Z" fill="#664428"/>
<path d="M89 11L86.0156 7L83 11H89Z" fill="#664428"/>
<path d="M96 25L92.0681 18H79.9721L76 25H96Z" fill="#664428"/>
<path d="M32.0126 103L28 110H144L140.029 103H32.0126Z" fill="#664428"/>
<path d="M120 67L116.093 60H56.9471L53 67H120Z" fill="#664428"/>
<path d="M137 96L133.031 89H41.0106L37 96H137Z" fill="#664428"/>
<path d="M127 82L123.079 75H47.961L44 82H127Z" fill="#664428"/>
<path d="M86.985 67L66 110H107L86.985 67Z" fill="url(#paint5_linear_776_5975)"/>
<path d="M86.8004 8.29737L142.641 110H145L86.8004 4L28 110H30.3835L86.8004 8.29737Z" fill="#0B3B61"/>
<path d="M170.735 141C168.776 141 167.061 140.657 165.592 139.971C164.143 139.267 163.01 138.314 162.194 137.114C161.398 135.895 161 134.514 161 132.971C161 131.429 161.388 130.057 162.163 128.857C162.959 127.638 164.051 126.695 165.439 126.029C166.827 125.343 168.388 125 170.122 125C171.755 125 173.245 125.314 174.592 125.943C175.939 126.552 177.01 127.457 177.806 128.657C178.602 129.857 179 131.314 179 133.029C179 133.219 178.99 133.438 178.969 133.686C178.949 133.933 178.929 134.162 178.908 134.371H165.776V131.514H175.816L173.612 132.314C173.633 131.61 173.49 131 173.184 130.486C172.898 129.971 172.49 129.571 171.959 129.286C171.449 129 170.847 128.857 170.153 128.857C169.459 128.857 168.847 129 168.316 129.286C167.806 129.571 167.408 129.981 167.122 130.514C166.837 131.029 166.694 131.638 166.694 132.343V133.171C166.694 133.933 166.857 134.59 167.184 135.143C167.531 135.695 168.02 136.124 168.653 136.429C169.286 136.714 170.041 136.857 170.918 136.857C171.735 136.857 172.429 136.752 173 136.543C173.592 136.314 174.173 135.971 174.745 135.514L177.806 138.486C177.01 139.305 176.031 139.933 174.867 140.371C173.704 140.79 172.327 141 170.735 141Z" fill="#F5FFFF"/>
<path d="M148 141V125.261H152.986V129.849L152.242 128.543C152.683 127.362 153.399 126.481 154.391 125.9C155.383 125.3 156.586 125 158 125V129.966C157.761 129.927 157.55 129.907 157.366 129.907C157.201 129.888 157.017 129.878 156.815 129.878C155.75 129.878 154.887 130.188 154.226 130.808C153.565 131.408 153.234 132.395 153.234 133.77V141H148Z" fill="#F5FFFF"/>
<path d="M133.238 141C131.853 141 130.605 140.748 129.493 140.245C128.402 139.742 127.542 138.958 126.913 137.893C126.304 136.809 126 135.444 126 133.799V125H131.979V132.898C131.979 134.118 132.22 134.989 132.703 135.512C133.206 136.034 133.909 136.296 134.811 136.296C135.399 136.296 135.934 136.17 136.416 135.918C136.899 135.667 137.287 135.27 137.58 134.728C137.874 134.166 138.021 133.45 138.021 132.579V125H144V140.739H138.304V136.296L139.406 137.544C138.818 138.706 137.969 139.577 136.857 140.158C135.745 140.719 134.538 141 133.238 141Z" fill="#F5FFFF"/>
<path d="M119.019 141C116.927 141 115.299 140.519 114.132 139.558C112.966 138.578 112.383 137.108 112.383 135.147V122H118.114V135.091C118.114 135.637 118.275 136.071 118.596 136.391C118.918 136.693 119.33 136.844 119.833 136.844C120.517 136.844 121.1 136.684 121.582 136.363L123 140.124C122.517 140.425 121.924 140.642 121.22 140.774C120.517 140.925 119.783 141 119.019 141ZM110 130.001V125.987H121.854V130.001H110Z" fill="#F5FFFF"/>
<path d="M101.012 125C102.322 125 103.508 125.252 104.568 125.755C105.629 126.239 106.461 126.994 107.064 128.02C107.688 129.046 108 130.372 108 131.998V141H102.073V132.898C102.073 131.776 101.823 130.962 101.324 130.459C100.846 129.936 100.17 129.675 99.2964 129.675C98.6724 129.675 98.1005 129.811 97.5806 130.082C97.0607 130.333 96.6551 130.73 96.364 131.272C96.0728 131.814 95.9272 132.521 95.9272 133.392V141H90V125.261H95.6464V129.733L94.5546 128.426C95.1993 127.284 96.0832 126.433 97.2062 125.871C98.3293 125.29 99.5979 125 101.012 125Z" fill="#F5FFFF"/>
<path d="M76.7347 141C74.7755 141 73.0612 140.657 71.5918 139.971C70.1429 139.267 69.0102 138.314 68.1939 137.114C67.398 135.895 67 134.514 67 132.971C67 131.429 67.3878 130.057 68.1633 128.857C68.9592 127.638 70.051 126.695 71.4388 126.029C72.8265 125.343 74.3878 125 76.1224 125C77.7551 125 79.2449 125.314 80.5918 125.943C81.9388 126.552 83.0102 127.457 83.8061 128.657C84.602 129.857 85 131.314 85 133.029C85 133.219 84.9898 133.438 84.9694 133.686C84.949 133.933 84.9286 134.162 84.9082 134.371H71.7755V131.514H81.8163L79.6122 132.314C79.6327 131.61 79.4898 131 79.1837 130.486C78.898 129.971 78.4898 129.571 77.9592 129.286C77.449 129 76.8469 128.857 76.1531 128.857C75.4592 128.857 74.8469 129 74.3163 129.286C73.8061 129.571 73.4082 129.981 73.1225 130.514C72.8367 131.029 72.6939 131.638 72.6939 132.343V133.171C72.6939 133.933 72.8571 134.59 73.1837 135.143C73.5306 135.695 74.0204 136.124 74.6531 136.429C75.2857 136.714 76.0408 136.857 76.9184 136.857C77.7347 136.857 78.4286 136.752 79 136.543C79.5918 136.314 80.1735 135.971 80.7449 135.514L83.8061 138.486C83.0102 139.305 82.0306 139.933 80.8673 140.371C79.7041 140.79 78.3265 141 76.7347 141Z" fill="#F5FFFF"/>
<path d="M53.5894 141L47 125H52.7621L58.0218 138.373H55.126L60.6516 125H66L59.381 141H53.5894Z" fill="#F5FFFF"/>
<path d="M33.9176 141C32.4547 141 31.1203 140.668 29.9143 140.004C28.7282 139.32 27.7792 138.373 27.0675 137.162C26.3558 135.932 26 134.467 26 132.768C26 131.089 26.3558 129.644 27.0675 128.433C27.7792 127.202 28.7282 126.255 29.9143 125.591C31.1203 124.927 32.4547 124.595 33.9176 124.595C35.3015 124.595 36.4679 124.888 37.4168 125.474C38.3855 126.06 39.117 126.958 39.6112 128.169C40.1054 129.38 40.3525 130.913 40.3525 132.768C40.3525 134.663 40.1153 136.215 39.6409 137.426C39.1664 138.637 38.4547 139.535 37.5058 140.121C36.5568 140.707 35.3608 141 33.9176 141ZM35.1038 136.577C35.7364 136.577 36.2998 136.43 36.7941 136.137C37.3081 135.844 37.7133 135.415 38.0099 134.848C38.3064 134.262 38.4547 133.569 38.4547 132.768C38.4547 131.968 38.3064 131.294 38.0099 130.747C37.7133 130.181 37.3081 129.751 36.7941 129.458C36.2998 129.165 35.7364 129.019 35.1038 129.019C34.4514 129.019 33.8682 129.165 33.3542 129.458C32.86 129.751 32.4646 130.181 32.168 130.747C31.8715 131.294 31.7232 131.968 31.7232 132.768C31.7232 133.569 31.8715 134.262 32.168 134.848C32.4646 135.415 32.86 135.844 33.3542 136.137C33.8682 136.43 34.4514 136.577 35.1038 136.577ZM38.6326 140.736V138.012L38.6623 132.768L38.3657 127.525V119H44V140.736H38.6326Z" fill="#F5FFFF"/>
<path d="M0 141L9.49017 120H15.4791L25 141H18.6732L11.2408 122.91H13.6364L6.20393 141H0ZM5.19042 136.92L6.75676 132.54H17.2604L18.8268 136.92H5.19042Z" fill="#F5FFFF"/>
<path d="M137.06 155.806C137.619 155.148 138.299 154.682 139.098 154.409C139.914 154.136 140.881 154 142 154L141.448 156.865C141.177 156.817 140.929 156.793 140.705 156.793C138.259 156.793 136.78 158.085 136.269 160.669L134.998 167H132L134.542 154.144H137.396L137.06 155.806Z" fill="#FFDBA4"/>
<path d="M128.927 164.552C129.307 164.552 129.665 164.481 130 164.338L129.703 166.691C129.17 166.897 128.577 167 127.922 167C127.116 167 126.446 166.826 125.913 166.477C125.381 166.113 125.023 165.614 124.84 164.98C124.292 165.629 123.638 166.129 122.877 166.477C122.131 166.826 121.294 167 120.365 167C119.361 167 118.447 166.778 117.626 166.335C116.819 165.891 116.18 165.249 115.708 164.41C115.236 163.554 115 162.556 115 161.415C115 160.005 115.297 158.737 115.89 157.612C116.499 156.472 117.321 155.584 118.356 154.951C119.406 154.317 120.578 154 121.872 154C123.82 154 125.205 154.673 126.027 156.02L126.37 154.143H129.224L127.58 162.675C127.534 162.865 127.511 163.047 127.511 163.221C127.511 163.649 127.633 163.982 127.877 164.219C128.12 164.441 128.47 164.552 128.927 164.552ZM121.096 164.457C121.903 164.457 122.618 164.259 123.242 163.863C123.881 163.451 124.384 162.888 124.749 162.176C125.114 161.447 125.297 160.623 125.297 159.704C125.297 158.706 125.015 157.929 124.452 157.375C123.889 156.804 123.097 156.519 122.078 156.519C121.271 156.519 120.548 156.725 119.909 157.137C119.285 157.533 118.79 158.096 118.425 158.824C118.059 159.537 117.877 160.353 117.877 161.272C117.877 162.271 118.158 163.055 118.721 163.625C119.285 164.18 120.076 164.457 121.096 164.457Z" fill="#FFDBA4"/>
<path d="M108.204 154C109.956 154 111.356 154.491 112.404 155.473C113.468 156.456 114 157.874 114 159.728C114 160.013 113.992 160.227 113.977 160.369L103.957 162.223C104.285 163.728 105.458 164.481 107.477 164.481C108.196 164.481 108.869 164.37 109.495 164.148C110.136 163.926 110.668 163.601 111.09 163.174L112.31 165.241C111.669 165.828 110.903 166.271 110.011 166.572C109.119 166.857 108.181 167 107.195 167C105.943 167 104.848 166.77 103.91 166.311C102.971 165.851 102.252 165.202 101.751 164.362C101.25 163.522 101 162.54 101 161.415C101 160.021 101.305 158.761 101.915 157.636C102.525 156.495 103.378 155.608 104.473 154.974C105.568 154.325 106.812 154 108.204 154ZM108.087 156.377C106.96 156.377 106.029 156.725 105.294 157.422C104.559 158.119 104.105 159.062 103.933 160.25L111.278 158.872C111.184 158.08 110.848 157.47 110.269 157.042C109.706 156.598 108.978 156.377 108.087 156.377Z" fill="#FFDBA4"/>
<path d="M95.7025 158.311H98.6229L96.8659 166.764H94.3492L94.5154 165.938C93.3915 166.646 92.0461 167 90.479 167C89.0228 167 87.7249 166.717 86.5852 166.15C85.4614 165.568 84.5829 164.749 83.9497 163.694C83.3166 162.624 83 161.381 83 159.964C83 158.091 83.4274 156.399 84.2821 154.887C85.1369 153.376 86.3478 152.188 87.9148 151.322C89.4818 150.441 91.2863 150 93.3282 150C94.8161 150 96.122 150.236 97.2458 150.708C98.3855 151.165 99.3035 151.834 100 152.715L97.7682 154.557C97.23 153.912 96.5889 153.439 95.845 153.14C95.101 152.841 94.2067 152.692 93.162 152.692C91.7691 152.692 90.5345 153.006 89.4581 153.636C88.3976 154.25 87.5745 155.092 86.9888 156.162C86.4032 157.233 86.1103 158.421 86.1103 159.728C86.1103 161.144 86.5298 162.27 87.3687 163.104C88.2076 163.923 89.4027 164.332 90.9539 164.332C91.6504 164.332 92.3231 164.222 92.9721 164.001C93.6369 163.765 94.2304 163.427 94.7528 162.986L95.7025 158.311Z" fill="#FFDBA4"/>
<path d="M67.2842 167C66.0225 167 64.9145 166.77 63.9601 166.311C63.022 165.835 62.294 165.178 61.7764 164.338C61.2588 163.498 61 162.524 61 161.415C61 160.005 61.3235 158.737 61.9705 157.612C62.6337 156.488 63.5477 155.608 64.7123 154.974C65.8931 154.325 67.2195 154 68.6915 154C69.9532 154 71.0612 154.23 72.0156 154.689C72.97 155.149 73.7059 155.798 74.2236 156.638C74.7412 157.478 75 158.452 75 159.561C75 160.971 74.6684 162.239 74.0052 163.364C73.342 164.489 72.42 165.376 71.2392 166.026C70.0745 166.675 68.7562 167 67.2842 167ZM67.4783 164.457C68.3356 164.457 69.0959 164.259 69.7591 163.863C70.4385 163.451 70.9723 162.888 71.3605 162.176C71.7487 161.447 71.9428 160.623 71.9428 159.704C71.9428 158.706 71.6436 157.929 71.0451 157.375C70.4466 156.804 69.6054 156.519 68.5217 156.519C67.6644 156.519 66.896 156.725 66.2166 157.137C65.5534 157.533 65.0277 158.096 64.6395 158.824C64.2513 159.537 64.0572 160.353 64.0572 161.272C64.0572 162.271 64.3564 163.055 64.9549 163.625C65.5534 164.18 66.3946 164.457 67.4783 164.457Z" fill="#FFDBA4"/>
<path d="M56.06 155.806C56.6195 155.148 57.299 154.682 58.0983 154.409C58.9137 154.136 59.8809 154 61 154L60.4484 156.865C60.1767 156.817 59.9289 156.793 59.705 156.793C57.259 156.793 55.7802 158.085 55.2686 160.669L53.9976 167H51L53.542 154.144H56.3957L56.06 155.806Z" fill="#FFDBA4"/>
<path d="M44.7041 150C46.7081 150 48.2544 150.453 49.3432 151.36C50.4477 152.25 51 153.505 51 155.124C51 156.565 50.6765 157.812 50.0296 158.864C49.3984 159.9 48.4832 160.702 47.284 161.269C46.1006 161.819 44.7041 162.094 43.0947 162.094H39.0473L38.0769 167H35L38.3136 150H44.7041ZM43.213 159.423C44.712 159.423 45.8639 159.083 46.6686 158.403C47.4892 157.707 47.8994 156.711 47.8994 155.416C47.8994 154.509 47.5917 153.829 46.9763 153.376C46.3767 152.906 45.5089 152.671 44.3728 152.671H40.8698L39.568 159.423H43.213Z" fill="#FFDBA4"/>
<defs>
<linearGradient id="paint0_linear_776_5975" x1="65.0461" y1="52.4649" x2="25.3508" y2="84.282" gradientUnits="userSpaceOnUse">
<stop offset="0.0109" stop-color="#8BD6CB"/>
<stop offset="0.1089" stop-color="#80CBC2"/>
<stop offset="1" stop-color="#236B77"/>
</linearGradient>
<linearGradient id="paint1_linear_776_5975" x1="198.046" y1="52.4649" x2="158.351" y2="84.282" gradientUnits="userSpaceOnUse">
<stop offset="0.0109" stop-color="#8BD6CB"/>
<stop offset="0.1089" stop-color="#80CBC2"/>
<stop offset="1" stop-color="#236B77"/>
</linearGradient>
<linearGradient id="paint2_linear_776_5975" x1="178.886" y1="38.4923" x2="129.827" y2="76.8629" gradientUnits="userSpaceOnUse">
<stop offset="0.0109" stop-color="#8BD6CB"/>
<stop offset="0.1089" stop-color="#80CBC2"/>
<stop offset="1" stop-color="#236B77"/>
</linearGradient>
<linearGradient id="paint3_linear_776_5975" x1="86.4898" y1="114.913" x2="86.7233" y2="1.61971" gradientUnits="userSpaceOnUse">
<stop stop-color="#E09079"/>
<stop offset="1" stop-color="#FFDBA4"/>
</linearGradient>
<linearGradient id="paint4_linear_776_5975" x1="85.842" y1="54.326" x2="86.1169" y2="153.789" gradientUnits="userSpaceOnUse">
<stop stop-color="#E09079"/>
<stop offset="1" stop-color="#FFDBA4"/>
</linearGradient>
<linearGradient id="paint5_linear_776_5975" x1="85.8593" y1="85.0948" x2="86.2299" y2="111.076" gradientUnits="userSpaceOnUse">
<stop stop-color="#FFDBA4"/>
<stop offset="1" stop-color="#E09079"/>
</linearGradient>
</defs>
</svg>
