<svg width="258" height="75" viewBox="0 0 258 75" fill="none" xmlns="http://www.w3.org/2000/svg">
<path d="M0 75L16.0002 27L32 75H0Z" fill="url(#paint0_linear_464_1720)"/>
<path opacity="0.24" d="M0 75L16 27V75H0Z" fill="#0B3B61"/>
<path d="M15 75L15.5002 27L16 75H15Z" fill="#0B3B61"/>
<path d="M91 75L107 27L123 75H91Z" fill="url(#paint1_linear_464_1720)"/>
<path opacity="0.24" d="M91 75L107 27V75H91Z" fill="#0B3B61"/>
<path d="M106 75L106.5 27L107 75H106Z" fill="#0B3B61"/>
<path d="M68 75L87.4998 16L107 75H68Z" fill="url(#paint2_linear_464_1720)"/>
<path opacity="0.24" d="M68 75L87 16V75H68Z" fill="#0B3B61"/>
<path d="M87 75L88 16L89 75H87Z" fill="#0B3B61"/>
<path d="M17 75L59.2156 0L101 75H17Z" fill="url(#paint3_linear_464_1720)"/>
<path d="M58.7028 5L19 75H98L58.7028 5Z" fill="url(#paint4_linear_464_1720)"/>
<path d="M77 37L74.2576 32H43.7704L41 37H77Z" fill="#664428"/>
<path d="M71 27L68.2548 22H48.7737L46 27H71Z" fill="#664428"/>
<path d="M61 8L59.0104 5L57 8H61Z" fill="#664428"/>
<path d="M66 17L63.2476 12H54.7805L52 17H66Z" fill="#664428"/>
<path d="M21.7327 70L19 75H98L95.2954 70H21.7327Z" fill="#664428"/>
<path d="M82 46L79.3174 41H38.71L36 46H82Z" fill="#664428"/>
<path d="M93 66L90.3008 61H27.7272L25 66H93Z" fill="#664428"/>
<path d="M87 56L84.3073 51H32.7202L30 56H87Z" fill="#664428"/>
<path d="M59.3312 46L45 75H73L59.3312 46Z" fill="url(#paint5_linear_464_1720)"/>
<path d="M59.2054 5.91897L97.3869 75H99L59.2054 3L19 75H20.6298L59.2054 5.91897Z" fill="#0B3B61"/>
<path d="M252.49 57C251.184 57 250.041 56.7643 249.061 56.2929C248.095 55.8083 247.34 55.1536 246.796 54.3286C246.265 53.4905 246 52.5411 246 51.4804C246 50.4196 246.259 49.4768 246.776 48.6518C247.306 47.8137 248.034 47.1655 248.959 46.7071C249.884 46.2357 250.925 46 252.082 46C253.17 46 254.163 46.2161 255.061 46.6482C255.959 47.0673 256.673 47.6893 257.204 48.5143C257.735 49.3393 258 50.3411 258 51.5196C258 51.6506 257.993 51.8012 257.98 51.9714C257.966 52.1417 257.952 52.2988 257.939 52.4429H249.184V50.4786H255.878L254.408 51.0286C254.422 50.544 254.327 50.125 254.122 49.7714C253.932 49.4179 253.66 49.1429 253.306 48.9464C252.966 48.75 252.565 48.6518 252.102 48.6518C251.639 48.6518 251.231 48.75 250.878 48.9464C250.537 49.1429 250.272 49.4244 250.082 49.7911C249.891 50.1446 249.796 50.5637 249.796 51.0482V51.6179C249.796 52.1417 249.905 52.5935 250.122 52.9732C250.354 53.353 250.68 53.6476 251.102 53.8571C251.524 54.0536 252.027 54.1518 252.612 54.1518C253.156 54.1518 253.619 54.0798 254 53.9357C254.395 53.7786 254.782 53.5429 255.163 53.2286L257.204 55.2714C256.673 55.8345 256.02 56.2667 255.245 56.5679C254.469 56.856 253.551 57 252.49 57Z" fill="#F4FFFF"/>
<path d="M237 57V46.1797H240.49V49.3339L239.97 48.4356C240.278 47.6237 240.78 47.0181 241.474 46.6189C242.168 46.2063 243.01 46 244 46V49.4138C243.833 49.3872 243.685 49.3739 243.556 49.3739C243.441 49.3606 243.312 49.3539 243.171 49.3539C242.425 49.3539 241.821 49.5668 241.358 49.9927C240.895 50.4053 240.664 51.0841 240.664 52.029V57H237Z" fill="#F4FFFF"/>
<path d="M226.825 57C225.902 57 225.07 56.827 224.329 56.4809C223.601 56.1349 223.028 55.5959 222.608 54.8639C222.203 54.1186 222 53.1803 222 52.049V46H225.986V51.4301C225.986 52.2686 226.147 52.8675 226.469 53.2269C226.804 53.5862 227.273 53.7659 227.874 53.7659C228.266 53.7659 228.622 53.6794 228.944 53.5064C229.266 53.3333 229.524 53.0605 229.72 52.6878C229.916 52.3019 230.014 51.8094 230.014 51.2105V46H234V56.8203H230.203V53.7659L230.937 54.6243C230.545 55.4229 229.979 56.0218 229.238 56.4211C228.497 56.807 227.692 57 226.825 57Z" fill="#F4FFFF"/>
<path d="M217.244 57C215.796 57 214.668 56.6711 213.861 56.0134C213.053 55.3428 212.65 54.3368 212.65 52.9955V44H216.617V52.9568C216.617 53.3309 216.729 53.6275 216.951 53.8467C217.174 54.0531 217.459 54.1562 217.807 54.1562C218.281 54.1562 218.684 54.0466 219.019 53.8274L220 56.4003C219.666 56.6066 219.255 56.755 218.768 56.8452C218.281 56.9484 217.773 57 217.244 57ZM211 49.4747V46.7277H219.206V49.4747H211Z" fill="#F4FFFF"/>
<path d="M204.341 46C205.215 46 206.005 46.173 206.712 46.5191C207.419 46.8518 207.974 47.3708 208.376 48.0762C208.792 48.7816 209 49.6933 209 50.8113V57H205.049V51.4301C205.049 50.6582 204.882 50.0992 204.549 49.7532C204.231 49.3938 203.78 49.2142 203.198 49.2142C202.782 49.2142 202.4 49.3073 202.054 49.4936C201.707 49.6667 201.437 49.9395 201.243 50.3122C201.049 50.6848 200.951 51.1706 200.951 51.7695V57H197V46.1797H200.764V49.2541L200.036 48.3557C200.466 47.5705 201.055 46.9849 201.804 46.5989C202.553 46.1996 203.399 46 204.341 46Z" fill="#F4FFFF"/>
<path d="M188.49 57C187.184 57 186.041 56.7643 185.061 56.2929C184.095 55.8083 183.34 55.1536 182.796 54.3286C182.265 53.4905 182 52.5411 182 51.4804C182 50.4196 182.259 49.4768 182.776 48.6518C183.306 47.8137 184.034 47.1655 184.959 46.7071C185.884 46.2357 186.925 46 188.082 46C189.17 46 190.163 46.2161 191.061 46.6482C191.959 47.0673 192.673 47.6893 193.204 48.5143C193.735 49.3393 194 50.3411 194 51.5196C194 51.6506 193.993 51.8012 193.98 51.9714C193.966 52.1417 193.952 52.2988 193.939 52.4429H185.184V50.4786H191.878L190.408 51.0286C190.422 50.544 190.327 50.125 190.122 49.7714C189.932 49.4179 189.66 49.1429 189.306 48.9464C188.966 48.75 188.565 48.6518 188.102 48.6518C187.639 48.6518 187.231 48.75 186.878 48.9464C186.537 49.1429 186.272 49.4244 186.082 49.7911C185.891 50.1446 185.796 50.5637 185.796 51.0482V51.6179C185.796 52.1417 185.905 52.5935 186.122 52.9732C186.354 53.353 186.68 53.6476 187.102 53.8571C187.524 54.0536 188.027 54.1518 188.612 54.1518C189.156 54.1518 189.619 54.0798 190 53.9357C190.395 53.7786 190.782 53.5429 191.163 53.2286L193.204 55.2714C192.673 55.8345 192.02 56.2667 191.245 56.5679C190.469 56.856 189.551 57 188.49 57Z" fill="#F4FFFF"/>
<path d="M172.509 57L168 46H171.942L175.541 55.1937H173.56L177.341 46H181L176.471 57H172.509Z" fill="#F4FFFF"/>
<path d="M159.278 57C158.303 57 157.414 56.7736 156.61 56.3209C155.819 55.8549 155.186 55.2091 154.712 54.3835C154.237 53.5446 154 52.5459 154 51.3875C154 50.2423 154.237 49.257 154.712 48.4314C155.186 47.5925 155.819 46.9467 156.61 46.494C157.414 46.0413 158.303 45.8149 159.278 45.8149C160.201 45.8149 160.979 46.0146 161.611 46.4141C162.257 46.8136 162.745 47.4261 163.074 48.2517C163.404 49.0772 163.568 50.1225 163.568 51.3875C163.568 52.6791 163.41 53.7377 163.094 54.5632C162.778 55.3888 162.303 56.0013 161.671 56.4008C161.038 56.8003 160.241 57 159.278 57ZM160.069 53.984C160.491 53.984 160.867 53.8842 161.196 53.6844C161.539 53.4847 161.809 53.1917 162.007 52.8056C162.204 52.4061 162.303 51.9334 162.303 51.3875C162.303 50.8415 162.204 50.3822 162.007 50.0093C161.809 49.6232 161.539 49.3302 161.196 49.1305C160.867 48.9308 160.491 48.8309 160.069 48.8309C159.634 48.8309 159.245 48.9308 158.903 49.1305C158.573 49.3302 158.31 49.6232 158.112 50.0093C157.914 50.3822 157.815 50.8415 157.815 51.3875C157.815 51.9334 157.914 52.4061 158.112 52.8056C158.31 53.1917 158.573 53.4847 158.903 53.6844C159.245 53.8842 159.634 53.984 160.069 53.984ZM162.422 56.8202V54.9627L162.442 51.3875L162.244 47.8123V42H166V56.8202H162.422Z" fill="#F4FFFF"/>
<path d="M136 57L142.453 43H146.526L153 57H148.698L143.644 44.94H145.273L140.219 57H136ZM139.529 54.28L140.595 51.36H147.737L148.802 54.28H139.529Z" fill="#F4FFFF"/>
<path d="M205.708 67.3011C206.081 66.8643 206.534 66.5553 207.066 66.3742C207.61 66.1931 208.254 66.1025 209 66.1025L208.632 68.0042C208.451 67.9723 208.286 67.9563 208.137 67.9563C206.507 67.9563 205.522 68.8139 205.181 70.5291L204.334 74.732H202.336L204.03 66.1984H205.932L205.708 67.3011Z" fill="#FFDBA4"/>
<path d="M200.428 73.1979C200.695 73.1979 200.945 73.1499 201.18 73.054L200.972 74.6361C200.599 74.7746 200.183 74.8438 199.725 74.8438C199.161 74.8438 198.692 74.7267 198.319 74.4923C197.946 74.2472 197.696 73.9117 197.568 73.4855C197.184 73.9223 196.726 74.2579 196.194 74.4923C195.672 74.7267 195.086 74.8438 194.436 74.8438C193.733 74.8438 193.093 74.6947 192.518 74.3964C191.954 74.0981 191.506 73.6666 191.176 73.102C190.846 72.5267 190.68 71.8555 190.68 71.0884C190.68 70.1403 190.888 69.288 191.304 68.5316C191.73 67.7645 192.305 67.1679 193.03 66.7418C193.765 66.3156 194.585 66.1025 195.491 66.1025C196.854 66.1025 197.824 66.5553 198.399 67.4609L198.639 66.1984H200.636L199.486 71.9354C199.454 72.0632 199.438 72.1858 199.438 72.303C199.438 72.5906 199.523 72.8143 199.693 72.9741C199.864 73.1233 200.109 73.1979 200.428 73.1979ZM194.947 73.1339C195.512 73.1339 196.013 73.0008 196.449 72.7344C196.897 72.4574 197.248 72.0792 197.504 71.5998C197.76 71.1097 197.888 70.5558 197.888 69.9378C197.888 69.2667 197.691 68.7446 197.296 68.3718C196.902 67.9882 196.348 67.7965 195.634 67.7965C195.07 67.7965 194.564 67.935 194.116 68.212C193.679 68.4783 193.333 68.8565 193.077 69.3466C192.822 69.826 192.694 70.3746 192.694 70.9926C192.694 71.6637 192.891 72.1911 193.285 72.5746C193.679 72.9475 194.233 73.1339 194.947 73.1339Z" fill="#FFDBA4"/>
<path d="M185.771 66.1025C186.964 66.1025 187.917 66.4328 188.631 67.0933C189.355 67.7539 189.718 68.7074 189.718 69.9538C189.718 70.1456 189.712 70.2894 189.702 70.3853L182.878 71.6318C183.102 72.6439 183.901 73.1499 185.275 73.1499C185.765 73.1499 186.223 73.0753 186.649 72.9262C187.086 72.777 187.448 72.5586 187.736 72.271L188.567 73.6613C188.13 74.0555 187.608 74.3538 187.001 74.5562C186.394 74.748 185.755 74.8438 185.083 74.8438C184.231 74.8438 183.485 74.6894 182.846 74.3804C182.207 74.0715 181.717 73.6347 181.376 73.07C181.035 72.5054 180.865 71.8448 180.865 71.0884C180.865 70.1509 181.072 69.304 181.488 68.5475C181.903 67.7805 182.484 67.1839 183.23 66.7577C183.975 66.3209 184.822 66.1025 185.771 66.1025ZM185.691 67.7006C184.924 67.7006 184.29 67.935 183.789 68.4037C183.288 68.8725 182.979 69.5064 182.862 70.3054L187.864 69.3785C187.8 68.8459 187.571 68.4357 187.177 68.148C186.793 67.8497 186.298 67.7006 185.691 67.7006Z" fill="#FFDBA4"/>
<path d="M177.421 69.0109H179.387L178.204 74.7319H176.51L176.622 74.1726C175.866 74.652 174.96 74.8917 173.905 74.8917C172.925 74.8917 172.052 74.6999 171.285 74.3164C170.528 73.9222 169.937 73.3682 169.511 72.6544C169.085 71.93 168.872 71.0883 168.872 70.1295C168.872 68.8617 169.159 67.7164 169.735 66.6937C170.31 65.6709 171.125 64.8666 172.18 64.2806C173.234 63.684 174.449 63.3857 175.823 63.3857C176.825 63.3857 177.703 63.5455 178.46 63.8652C179.227 64.1741 179.845 64.6269 180.314 65.2235L178.811 66.47C178.449 66.0332 178.018 65.7136 177.517 65.5111C177.016 65.3087 176.414 65.2075 175.711 65.2075C174.774 65.2075 173.943 65.4206 173.218 65.8467C172.504 66.2622 171.95 66.8322 171.556 67.5566C171.162 68.2811 170.965 69.0854 170.965 69.9697C170.965 70.9285 171.247 71.6903 171.812 72.2549C172.377 72.8089 173.181 73.0859 174.225 73.0859C174.694 73.0859 175.147 73.0113 175.583 72.8622C176.031 72.7023 176.43 72.4733 176.782 72.175L177.421 69.0109Z" fill="#FFDBA4"/>
<path d="M157.943 74.8438C157.112 74.8438 156.382 74.6894 155.753 74.3804C155.136 74.0608 154.656 73.6187 154.315 73.054C153.974 72.4894 153.804 71.8342 153.804 71.0884C153.804 70.1403 154.017 69.288 154.443 68.5316C154.88 67.7752 155.482 67.1839 156.249 66.7577C157.027 66.3209 157.9 66.1025 158.87 66.1025C159.701 66.1025 160.43 66.257 161.059 66.566C161.688 66.8749 162.172 67.3117 162.513 67.8764C162.854 68.441 163.025 69.0962 163.025 69.842C163.025 70.7901 162.806 71.6424 162.369 72.3988C161.933 73.1552 161.325 73.7518 160.548 74.1886C159.781 74.6254 158.912 74.8438 157.943 74.8438ZM158.071 73.1339C158.635 73.1339 159.136 73.0008 159.573 72.7344C160.02 72.4574 160.372 72.0792 160.627 71.5998C160.883 71.1097 161.011 70.5558 161.011 69.9378C161.011 69.2667 160.814 68.7446 160.42 68.3718C160.026 67.9882 159.472 67.7965 158.758 67.7965C158.193 67.7965 157.687 67.935 157.24 68.212C156.803 68.4783 156.457 68.8565 156.201 69.3466C155.945 69.826 155.817 70.3746 155.817 70.9926C155.817 71.6637 156.014 72.1911 156.409 72.5746C156.803 72.9475 157.357 73.1339 158.071 73.1339Z" fill="#FFDBA4"/>
<path d="M150.541 67.3011C150.914 66.8643 151.367 66.5553 151.9 66.3742C152.443 66.1931 153.088 66.1025 153.833 66.1025L153.466 68.0042C153.285 67.9723 153.119 67.9563 152.97 67.9563C151.34 67.9563 150.355 68.8139 150.014 70.5291L149.167 74.732H147.169L148.863 66.1984H150.765L150.541 67.3011Z" fill="#FFDBA4"/>
<path d="M142.552 63.5454C143.905 63.5454 144.949 63.8437 145.684 64.4403C146.43 65.0263 146.803 65.8519 146.803 66.9173C146.803 67.8655 146.584 68.6858 146.148 69.3783C145.721 70.0601 145.104 70.5875 144.294 70.9603C143.495 71.3226 142.552 71.5037 141.465 71.5037H138.733L138.077 74.7317H136L138.237 63.5454H142.552ZM141.545 69.7458C142.557 69.7458 143.335 69.5221 143.878 69.0746C144.432 68.6165 144.709 67.9613 144.709 67.1091C144.709 66.5124 144.502 66.065 144.086 65.7667C143.681 65.4577 143.095 65.3033 142.328 65.3033H139.963L139.084 69.7458H141.545Z" fill="#FFDBA4"/>
<defs>
<linearGradient id="paint0_linear_464_1720" x1="44.2867" y1="35.5473" x2="17.1098" y2="57.176" gradientUnits="userSpaceOnUse">
<stop offset="0.0109" stop-color="#8BD6CB"/>
<stop offset="0.1089" stop-color="#80CBC2"/>
<stop offset="1" stop-color="#236B77"/>
</linearGradient>
<linearGradient id="paint1_linear_464_1720" x1="135.287" y1="35.5473" x2="108.11" y2="57.176" gradientUnits="userSpaceOnUse">
<stop offset="0.0109" stop-color="#8BD6CB"/>
<stop offset="0.1089" stop-color="#80CBC2"/>
<stop offset="1" stop-color="#236B77"/>
</linearGradient>
<linearGradient id="paint2_linear_464_1720" x1="121.974" y1="26.5063" x2="88.6346" y2="52.8151" gradientUnits="userSpaceOnUse">
<stop offset="0.0109" stop-color="#8BD6CB"/>
<stop offset="0.1089" stop-color="#80CBC2"/>
<stop offset="1" stop-color="#236B77"/>
</linearGradient>
<linearGradient id="paint3_linear_464_1720" x1="58.993" y1="78.35" x2="59.152" y2="1.10435" gradientUnits="userSpaceOnUse">
<stop stop-color="#E09079"/>
<stop offset="1" stop-color="#FFDBA4"/>
</linearGradient>
<linearGradient id="paint4_linear_464_1720" x1="58.3924" y1="37.1633" x2="58.5788" y2="104.759" gradientUnits="userSpaceOnUse">
<stop stop-color="#E09079"/>
<stop offset="1" stop-color="#FFDBA4"/>
</linearGradient>
<linearGradient id="paint5_linear_464_1720" x1="58.5625" y1="58.2035" x2="58.8093" y2="75.7255" gradientUnits="userSpaceOnUse">
<stop stop-color="#FFDBA4"/>
<stop offset="1" stop-color="#E09079"/>
</linearGradient>
</defs>
</svg>
